<svg width="144" height="144" viewBox="0 0 144 144" fill="none" xmlns="http://www.w3.org/2000/svg">
<g clip-path="url(#clip0_6187_22326)">
<path d="M78 145C52.0221 145 26.5443 145 1.0332 145C1.0332 97.0638 1.0332 49.1276 1.0332 1.0957C48.8943 1.0957 96.7888 1.0957 144.842 1.0957C144.842 48.9995 144.842 96.9997 144.842 145C122.795 145 100.647 145 78 145ZM80.5718 21.988C79.6145 22.2703 78.6634 22.5764 77.6988 22.8312C70.0391 24.8542 69.8923 24.8538 70.0406 32.9654C70.2167 42.5996 70.6397 52.2301 71.0402 61.8587C71.1379 64.2076 70.448 67.4934 74.2659 67.3892C77.6902 67.2956 79.044 64.8609 78.9676 61.5452C78.887 58.0519 78.7986 54.5528 78.9315 51.0645C78.9677 50.1172 79.791 49.1998 80.253 48.2687C81.1484 48.8678 82.4443 49.2646 82.8676 50.1023C84.4397 53.2139 85.7583 56.4565 87.1079 59.6768C88.4248 62.8191 90.6536 63.229 93.6187 62.1759C97.1395 60.9255 96.0851 58.3107 94.893 56.5187C90.1646 49.4103 90.736 42.8228 93.867 34.8968C97.5041 25.6895 91.1413 19.7682 80.5718 21.988ZM15.2189 98.1199C17.7798 95.2433 20.1017 94.7247 23.1248 97.9114C24.14 98.9814 27.2026 99.1641 28.6482 98.4232C29.7259 97.8708 30.638 94.5831 29.9849 93.5655C28.6048 91.4153 26.3944 88.9447 24.0948 88.3914C15.7844 86.3915 6.41287 93.5233 6.204 102.154C6.00735 110.28 6.42506 118.479 7.43354 126.538C7.717 128.803 10.6911 131.852 13.0223 132.541C21.6578 135.094 30.3943 128.365 30.9124 119.332C31.0839 116.342 30.8763 113.332 30.9924 110.337C31.1571 106.094 29.0892 105.039 25.3482 106.145C23.7533 106.617 22.0539 106.877 20.5845 107.603C17.5174 109.117 17.4789 111.709 20.3476 113.626C23.8923 115.996 24.0042 122.197 20.4661 124.461C18.0488 126.007 15.4999 125.929 15.3134 122.613C14.8685 114.699 14.9687 106.754 15.2189 98.1199ZM122.945 20.9678C122 15.3581 119.413 13.0806 113.981 13.0785C105.923 13.0753 99.0958 19.4047 99.1086 27.4858C99.1208 35.2949 99.6589 43.1086 100.141 50.9094C100.413 55.3021 103.397 57.2884 107.407 57.8232C115.341 58.8813 123.706 51.7313 123.846 43.2894C123.965 36.1536 123.294 29.0046 122.945 20.9678ZM45.5214 124.882C55.4568 123.477 60.0498 118.481 59.9459 108.573C59.8588 100.263 59.378 91.9547 58.9878 83.6495C58.8741 81.2296 59.2078 78.1643 55.2657 78.6222C51.5943 79.0486 51.0634 81.5253 51.2149 84.7925C51.6156 93.4298 51.776 102.08 51.9336 110.726C51.9883 113.731 51.2655 117.087 47.6834 116.682C46.2642 116.521 44.328 112.903 44.2046 110.768C43.763 103.128 44.1886 95.4396 43.8345 87.7906C43.7513 85.992 42.0737 82.9488 40.8269 82.7853C37.8516 82.395 35.997 84.6017 36.085 87.832C36.3478 97.4719 36.6455 107.111 36.9491 116.75C37.1071 121.766 39.9279 124.267 45.5214 124.882ZM94.554 69.0292C93.9962 69.6456 93.356 70.2059 92.8931 70.8868C86.3302 80.5419 90.0271 88.7832 101.472 90.0639C102.295 90.1561 103.5 90.0303 103.858 90.5078C105.045 92.0919 106.825 93.9751 106.699 95.6139C106.535 97.7327 105.117 100.116 103.515 101.607C102.734 102.335 100.259 101.482 98.6461 101.014C96.6741 100.442 94.8248 99.0647 92.8775 98.9709C92.0529 98.9312 90.1495 101.555 90.4187 102.478C91.0614 104.68 92.2442 107.268 94.0347 108.484C98.2578 111.354 105.363 109.846 110.236 105.74C114.398 102.233 116.403 94.3998 114.509 88.6702C112.719 83.2578 108.205 82.9251 103.537 82.9579C103.205 82.9603 102.764 83.0509 102.558 82.8792C101.074 81.6406 98.4145 80.3027 98.4568 79.0766C98.53 76.953 100.043 74.6781 101.524 72.9592C101.854 72.577 104.522 74.329 106.174 74.9335C107.73 75.5028 109.795 76.6651 110.859 76.1009C112.25 75.363 113.624 73.2139 113.687 71.6199C113.847 67.5451 110.686 65.2494 107.281 65.4338C103.177 65.656 99.157 67.4218 94.554 69.0292ZM41.189 70.1287C38.2085 60.2472 35.3336 50.3313 32.1382 40.5198C31.6353 38.9759 29.4968 36.7213 28.4383 36.8853C26.7359 37.1491 25.1788 39.0366 23.8136 40.4781C23.206 41.1196 23.163 42.3338 22.9521 43.3072C20.4148 55.0196 17.8595 66.7285 15.4117 78.4598C15.0989 79.9588 15.3689 81.5795 15.3689 83.3614C20.4157 83.103 22.8615 81.0284 23.3013 76.35C23.6596 72.5383 26.674 70.9975 29.989 70.8618C31.2519 70.8101 33.2886 72.4045 33.7597 73.6924C34.9005 76.811 36.4564 78.0533 39.741 76.9669C43.4837 75.729 42.0276 73.2047 41.189 70.1287ZM83.7589 70.7883C78.945 72.0998 73.9964 73.0702 69.384 74.8919C67.5598 75.6124 65.2695 78.2224 65.2633 79.9793C65.2226 91.6109 65.6542 103.249 66.2247 114.87C66.2819 116.034 68.5374 118.214 69.3619 118.035C74.8729 116.836 80.3611 115.362 85.6375 113.39C86.7663 112.968 86.9957 110.139 87.6395 108.419C86.1965 108.07 84.7317 107.37 83.3162 107.458C81.527 107.57 79.7828 108.343 78.0107 108.797C75.5372 109.432 74.3699 108.539 74.0032 105.911C73.0886 99.3549 73.1565 99.1276 80.8875 96.5644C83.445 95.7164 86.6773 95.0056 85.3361 91.4804C84.9399 90.439 81.4539 89.8938 79.5748 90.2203C73.3711 91.2985 72.2423 90.6977 73.2302 84.5431C73.5435 82.5911 75.577 80.4869 77.3833 79.3169C79.4021 78.0092 82.2568 78.0403 84.3882 76.8467C87.4776 75.1165 88.3119 72.8016 83.7589 70.7883ZM52.9497 37.5283C56.3294 36.2462 59.8458 35.2239 63.0203 33.5522C64.265 32.8967 64.7434 30.7861 65.5707 29.3382C64.0583 28.7538 62.4648 27.5344 61.0501 27.715C57.9434 28.1118 54.9301 29.2282 51.8734 30.0308C44.0784 32.0774 43.8438 32.4688 44.7745 40.6703C44.9989 42.6477 44.9817 44.6581 44.989 46.6536C45.0161 53.9776 44.95 61.3023 45.0289 68.6256C45.0918 74.4745 45.9784 75.1858 51.4881 73.8661C54.8824 73.0531 58.2185 71.999 61.5896 71.0856C64.4155 70.3198 67.6285 69.5033 66.5882 65.6915C65.5561 61.9102 62.5038 64.4112 60.276 64.4058C58.0861 64.4004 54.5846 65.0871 53.99 64.0858C52.882 62.2198 52.5755 58.8537 53.5896 57.0337C54.65 55.1305 57.5423 54.0288 59.8442 53.0955C62.3894 52.0635 65.4462 51.4539 64.6528 47.9389C63.7499 43.9386 60.7175 46.058 58.5926 46.653C54.8248 47.7081 52.7841 46.6907 52.6781 42.6113C52.6398 41.1392 52.6099 39.6669 52.9497 37.5283ZM127.065 102.356C130.784 101.923 132.136 99.6472 131.975 96.1299C131.635 88.6545 131.263 81.1796 131.026 73.7006C130.875 68.8877 130.115 63.7287 136.941 62.3206C137.734 62.157 138.556 59.874 138.485 58.623C138.442 57.8622 136.52 56.4223 135.773 56.6095C129.487 58.1841 123.227 59.9142 117.099 62.0078C116.133 62.3377 115.636 64.6966 115.431 66.1873C115.37 66.6282 117.172 67.9252 117.916 67.7802C122.926 66.8031 123.008 69.9548 122.999 73.4027C122.979 81.3968 122.977 89.3913 123.052 97.3848C123.074 99.6815 122.859 102.314 127.065 102.356Z" fill="black"/>
<path d="M80.9711 21.8816C91.1411 19.7681 97.5039 25.6895 93.8668 34.8968C90.7358 42.8228 90.1644 49.4103 94.8928 56.5186C96.0849 58.3107 97.1393 60.9254 93.6185 62.1759C90.6534 63.2289 88.4246 62.819 87.1077 59.6767C85.7581 56.4564 84.4395 53.2138 82.8674 50.1022C82.4441 49.2645 81.1481 48.8678 80.2528 48.2686C79.7908 49.1998 78.9675 50.1171 78.9313 51.0645C78.7984 54.5527 78.8868 58.0518 78.9674 61.5451C79.0438 64.8609 77.69 67.2956 74.2657 67.3891C70.4478 67.4934 71.1377 64.2075 71.04 61.8587C70.6395 52.2301 70.2165 42.5995 70.0403 32.9653C69.892 24.8538 70.0389 24.8541 77.6986 22.8311C78.6632 22.5764 79.6143 22.2703 80.9711 21.8816ZM86.7729 32.8494C85.2941 31.4283 83.9442 29.1253 82.293 28.8841C81.1146 28.7119 79.3157 31.1589 78.2195 32.7336C77.6651 33.5298 77.806 35.0457 78.0766 36.1249C78.476 37.7173 79.2715 39.2103 79.8983 40.7457C81.7743 39.935 83.9829 39.4903 85.4137 38.1897C86.4297 37.2662 86.3963 35.1882 86.7729 32.8494Z" fill="white"/>
<path d="M15.0334 98.4706C14.9683 106.754 14.868 114.698 15.313 122.612C15.4995 125.929 18.0483 126.007 20.4657 124.46C24.0038 122.197 23.8918 115.995 20.3471 113.626C17.4784 111.709 17.517 109.117 20.584 107.602C22.0535 106.877 23.7529 106.617 25.3478 106.145C29.0888 105.038 31.1566 106.093 30.992 110.337C30.8758 113.332 31.0835 116.342 30.912 119.331C30.3938 128.365 21.6573 135.094 13.0218 132.541C10.6906 131.852 7.71656 128.803 7.4331 126.538C6.42462 118.479 6.00691 110.28 6.20356 102.154C6.41243 93.5229 15.784 86.3911 24.0944 88.391C26.3939 88.9444 28.6044 91.415 29.9845 93.5651C30.6376 94.5827 29.7255 97.8705 28.6478 98.4229C27.2022 99.1638 24.1395 98.9811 23.1244 97.911C20.1012 94.7244 17.7793 95.2429 15.0334 98.4706Z" fill="white"/>
<path d="M122.959 21.4143C123.294 29.0043 123.965 36.1532 123.846 43.2891C123.706 51.731 115.341 58.8809 107.407 57.8229C103.397 57.288 100.413 55.3017 100.141 50.909C99.6587 43.1082 99.1207 35.2945 99.1084 27.4855C99.0957 19.4043 105.923 13.0749 113.981 13.0781C119.413 13.0803 122 15.3577 122.959 21.4143ZM113.731 21.1615C109.241 19.7825 107.379 22.4014 107.195 26.1429C106.876 32.6068 106.869 39.1102 107.244 45.5672C107.339 47.1914 109.38 48.7024 110.527 50.2654C112.277 48.7871 115.523 47.3117 115.526 45.83C115.542 37.7827 114.756 29.7339 113.731 21.1615Z" fill="white"/>
<path d="M45.1215 124.87C39.928 124.267 37.1071 121.766 36.9491 116.75C36.6455 107.111 36.3478 97.4718 36.085 87.8318C35.997 84.6016 37.8516 82.3949 40.8269 82.7852C42.0737 82.9487 43.7513 85.9918 43.8346 87.7905C44.1886 95.4394 43.7631 103.127 44.2046 110.768C44.328 112.903 46.2642 116.521 47.6834 116.681C51.2655 117.087 51.9883 113.731 51.9336 110.726C51.776 102.079 51.6156 93.4297 51.215 84.7924C51.0634 81.5251 51.5944 79.0485 55.2657 78.622C59.2078 78.1641 58.8741 81.2295 58.9878 83.6494C59.378 91.9546 59.8588 100.262 59.9459 108.573C60.0498 118.481 55.4569 123.477 45.1215 124.87Z" fill="white"/>
<path d="M94.8275 68.7746C99.1572 67.4221 103.177 65.6564 107.281 65.4341C110.686 65.2498 113.848 67.5455 113.687 71.6202C113.624 73.2142 112.25 75.3634 110.859 76.1013C109.795 76.6655 107.73 75.5032 106.174 74.9339C104.523 74.3294 101.854 72.5774 101.524 72.9595C100.044 74.6785 98.5301 76.9533 98.457 79.077C98.4147 80.3031 101.074 81.6409 102.558 82.8795C102.764 83.0512 103.205 82.9606 103.537 82.9583C108.205 82.9255 112.719 83.2581 114.509 88.6706C116.404 94.4001 114.398 102.234 110.236 105.741C105.363 109.846 98.258 111.354 94.0349 108.485C92.2443 107.268 91.0615 104.681 90.4188 102.478C90.1497 101.556 92.053 98.9316 92.8776 98.9713C94.825 99.065 96.6743 100.443 98.6463 101.015C100.259 101.483 102.734 102.335 103.515 101.608C105.117 100.116 106.535 97.7331 106.699 95.6143C106.826 93.9755 105.045 92.0923 103.858 90.5081C103.5 90.0307 102.295 90.1564 101.472 90.0643C90.0273 88.7836 86.3303 80.5422 92.8933 70.8871C93.3561 70.2062 93.9964 69.646 94.8275 68.7746Z" fill="white"/>
<path d="M41.312 70.4892C42.0276 73.2048 43.4837 75.7291 39.7411 76.967C36.4565 78.0533 34.9006 76.8111 33.7598 73.6925C33.2887 72.4046 31.252 70.8102 29.9891 70.8619C26.6741 70.9976 23.6596 72.5384 23.3013 76.3501C22.8616 81.0285 20.4158 83.1031 15.369 83.3615C15.369 81.5796 15.099 79.9589 15.4118 78.4599C17.8596 66.7286 20.4149 55.0197 22.9522 43.3073C23.1631 42.3339 23.2061 41.1197 23.8137 40.4782C25.1789 39.0367 26.736 37.1492 28.4384 36.8854C29.4968 36.7214 31.6354 38.976 32.1382 40.5199C35.3337 50.3314 38.2086 60.2473 41.312 70.4892ZM29.1631 56.9147C28.8546 56.2344 28.546 55.5541 28.2375 54.8738C27.8951 54.888 27.5527 54.9021 27.2104 54.9162C26.7627 57.8229 26.3151 60.7295 25.7812 64.1957C32.0147 63.6695 30.0874 60.3401 29.1631 56.9147Z" fill="white"/>
<path d="M84.1111 70.75C88.3119 72.8019 87.4777 75.1169 84.3882 76.8471C82.2569 78.0407 79.4021 78.0096 77.3834 79.3172C75.5771 80.4873 73.5436 82.5914 73.2303 84.5434C72.2424 90.6981 73.3712 91.2988 79.5749 90.2207C81.454 89.8941 84.94 90.4393 85.3362 91.4807C86.6774 95.0059 83.4451 95.7168 80.8876 96.5647C73.1566 99.128 73.0886 99.3552 74.0033 105.911C74.37 108.54 75.5372 109.432 78.0108 108.798C79.7829 108.343 81.5271 107.571 83.3162 107.459C84.7318 107.37 86.1966 108.07 87.6396 108.42C86.9958 110.14 86.7664 112.969 85.6375 113.39C80.3612 115.362 74.873 116.836 69.362 118.035C68.5374 118.215 66.282 116.035 66.2248 114.871C65.6543 103.249 65.2227 91.6112 65.2634 79.9797C65.2696 78.2228 67.5599 75.6128 69.3841 74.8923C73.9965 73.0706 78.9451 72.1001 84.1111 70.75Z" fill="white"/>
<path d="M52.7633 37.8618C52.6102 39.6672 52.6401 41.1395 52.6784 42.6116C52.7845 46.691 54.8251 47.7084 58.593 46.6533C60.7178 46.0583 63.7502 43.9389 64.6531 47.9392C65.4465 51.4542 62.3897 52.0638 59.8445 53.0958C57.5427 54.0291 54.6503 55.1308 53.5899 57.034C52.5758 58.854 52.8823 62.2201 53.9903 64.0861C54.5849 65.0874 58.0864 64.4007 60.2764 64.4061C62.5042 64.4115 65.5564 61.9105 66.5885 65.6918C67.6289 69.5036 64.4158 70.3201 61.5899 71.0859C58.2189 71.9993 54.8828 73.0534 51.4884 73.8664C45.9787 75.1861 45.0922 74.4748 45.0292 68.6259C44.9504 61.3026 45.0164 53.9779 44.9894 46.6539C44.982 44.6584 44.9993 42.648 44.7749 40.6706C43.8442 32.4691 44.0788 32.0777 51.8738 30.0311C54.9304 29.2285 57.9437 28.1121 61.0504 27.7153C62.4651 27.5347 64.0587 28.7541 65.5711 29.3385C64.7437 30.7864 64.2653 32.897 63.0207 33.5525C59.8462 35.2242 56.3297 36.2465 52.7633 37.8618Z" fill="white"/>
<path d="M126.691 102.427C122.859 102.314 123.074 99.6814 123.052 97.3847C122.977 89.3912 122.98 81.3967 123 73.4026C123.008 69.9547 122.926 66.803 117.916 67.7801C117.172 67.9251 115.371 66.6281 115.431 66.1872C115.636 64.6965 116.134 62.3376 117.099 62.0077C123.227 59.9141 129.487 58.184 135.773 56.6094C136.52 56.4222 138.443 57.8621 138.485 58.6229C138.556 59.8739 137.734 62.1569 136.941 62.3205C130.115 63.7286 130.875 68.8876 131.027 73.7005C131.263 81.1795 131.635 88.6544 131.976 96.1298C132.136 99.6471 130.784 101.923 126.691 102.427Z" fill="white"/>
<path d="M86.8023 33.2379C86.3965 35.1887 86.4299 37.2667 85.4139 38.1903C83.9831 39.4908 81.7745 39.9355 79.8985 40.7462C79.2717 39.2108 78.4762 37.7178 78.0768 36.1254C77.8062 35.0462 77.6653 33.5303 78.2196 32.7341C79.3159 31.1594 81.1148 28.7124 82.2932 28.8846C83.9444 29.1258 85.2943 31.4289 86.8023 33.2379Z" fill="black"/>
<path d="M113.989 21.4241C114.756 29.7344 115.542 37.7833 115.526 45.8306C115.523 47.3122 112.277 48.7877 110.527 50.2659C109.38 48.703 107.339 47.192 107.244 45.5678C106.869 39.1108 106.876 32.6074 107.195 26.1435C107.379 22.402 109.241 19.7831 113.989 21.4241Z" fill="black"/>
<path d="M29.2528 57.2244C30.0874 60.3403 32.0147 63.6697 25.7812 64.1959C26.3151 60.7297 26.7628 57.823 27.2104 54.9164C27.5528 54.9023 27.8951 54.8882 28.2375 54.874C28.5461 55.5543 28.8546 56.2346 29.2528 57.2244Z" fill="black"/>
</g>
<defs>
<clipPath id="clip0_6187_22326">
<rect width="144" height="144" fill="white"/>
</clipPath>
</defs>
</svg>
