<svg width="792" height="792" viewBox="0 0 792 792" fill="none" xmlns="http://www.w3.org/2000/svg">
<g clip-path="url(#clip0_6289_4879)">
<path d="M792 0H0V792H792V0Z" fill="white"/>
<mask id="mask0_6289_4879" style="mask-type:luminance" maskUnits="userSpaceOnUse" x="83" y="303" width="625" height="185">
<path d="M708 303H83V488H708V303Z" fill="white"/>
</mask>
<g mask="url(#mask0_6289_4879)">
<path d="M489 489C353.708 489 218.917 489 84.0625 489C84.0625 427.394 84.0625 365.788 84.0625 304.091C292.333 304.091 500.667 304.091 708.966 304.091C708.966 365.75 708.966 427.375 708.966 489C635.788 489 562.644 489 489 489ZM126.754 330.251C113.544 330.251 100.334 330.251 86.9095 330.251C87.0708 331.337 87.0619 332.014 87.2756 332.61C93.1804 349.091 99.132 365.556 105.026 382.041C113.408 405.487 121.741 428.951 130.125 452.397C131.025 454.911 132.515 456.175 135.63 456.101C146.619 455.841 157.619 456.103 168.608 455.876C170.075 455.846 172.363 454.455 172.828 453.172C182.677 425.985 192.293 398.713 202.014 371.479C206.923 357.727 211.948 344.017 217.026 330C203.996 330 191.504 329.92 179.017 330.117C177.683 330.137 175.613 331.492 175.17 332.7C169.973 346.879 165.038 361.153 159.999 375.391C157.442 382.616 154.817 389.818 152.222 397.03C151.843 397 151.464 396.97 151.084 396.94C143.17 374.927 135.256 352.913 126.754 330.251ZM235.944 353.615C243.113 376.811 259.105 391.381 281.596 400.574C290.18 376.885 298.603 353.637 307.079 330.243C281.781 330.243 257.044 330.243 231.075 330.243C232.59 338.114 234.018 345.534 235.944 353.615ZM243.818 414.303C234.905 411.273 226.19 412.333 219.842 419.039C213.19 426.067 211.975 435.066 215.947 443.883C219.145 450.982 230.041 457.357 239.429 455.248C250.477 452.765 255.668 445.095 256.892 436.025C257.92 428.403 253.378 418.19 243.818 414.303ZM530.467 354.951C529.436 355.296 528.406 355.641 526.791 356.182C526.791 352.173 526.791 348.616 526.791 345.169C524.67 345.169 523.05 345.169 521.283 345.169C521.283 355.523 521.283 365.707 521.283 375.903C525.414 376.352 529.465 374.335 533.18 376.917C533.698 377.276 534.796 376.952 535.578 376.754C541.424 375.276 545.067 369.404 543.983 363.279C542.79 356.535 538.398 353.5 530.467 354.951ZM552.284 391.197C552.024 392.125 551.782 393.058 551.501 393.979C548.81 402.829 554.197 409.941 562.942 408.976C566.488 408.585 570.006 407.947 573.711 407.396C573.711 400.869 573.711 393.981 573.711 387C569.449 387 565.403 386.538 561.526 387.149C558.538 387.62 555.763 389.438 552.284 391.197ZM460.962 408.978C464.149 408.447 467.336 407.916 471 407.306C471 404.328 471 400.878 471 397.427C471 393.995 471 390.564 471 387C465.838 387 461.166 386.609 456.61 387.165C454.326 387.444 451.437 388.925 450.249 390.777C447.423 395.18 447.513 400.214 450.02 404.886C452.179 408.908 456.063 409.31 460.962 408.978ZM398.062 402.973C395.782 402.541 393.503 402.108 391.223 401.676C391.314 401.111 391.405 400.546 391.496 399.981C396.224 399.981 400.952 399.981 405.645 399.981C406.187 393.548 403.74 388.539 399.591 387.185C394.766 385.611 387.113 388.354 385.218 392.337C383.209 396.558 384.834 403.857 388.468 406.942C392.622 410.468 399.34 409.823 405.16 405.188C403.599 402.876 403.109 398.426 398.062 402.973ZM564.816 374.707C568.903 371.406 564.025 370.21 563.575 367.847C556.983 371.995 556.128 371.956 552.85 367.073C557.699 367.073 562.231 367.073 566.611 367.073C567.817 361.934 566.766 357.732 562.675 355.401C558.927 353.266 554.562 353.147 550.73 355.853C546.714 358.689 545.397 362.683 545.991 367.498C546.777 373.88 554.797 379.998 564.816 374.707ZM521.53 405.965C525.938 396.718 524.578 390.887 517.292 387.798C510.915 385.094 504.188 387.689 501.676 393.821C499.272 399.69 501.976 406.256 507.962 408.402C512.517 410.035 516.9 409.064 521.53 405.965ZM359.491 387C355.414 387 351.336 387 347.276 387C347.276 394.288 347.276 401.038 347.276 407.712C349.625 407.712 351.694 407.712 354.013 407.712C354.013 403.783 353.693 400.096 354.182 396.519C354.36 395.211 356.459 394.166 357.682 393.001C358.788 394.243 360.677 395.385 360.848 396.744C361.298 400.316 361 403.983 361 407.799C363.464 407.799 365.53 407.799 367.993 407.799C367.993 403.322 368.437 398.967 367.866 394.75C367.317 390.699 365.942 386.569 359.491 387ZM539.253 393.044C544.363 397.058 540.642 403.039 542.43 407.728C544.269 407.728 546.002 407.728 547.999 407.728C547.999 402.994 548.372 398.487 547.875 394.078C547.509 390.818 546.432 387.19 542.042 387.04C537.137 386.873 532.221 387.002 527.232 387.002C527.232 394.204 527.232 400.941 527.232 407.769C529.535 407.769 531.6 407.769 534 407.769C534 404.419 534.062 401.292 533.983 398.169C533.904 395.052 534.949 393.019 539.253 393.044ZM629 366.584C629 364.924 629.072 363.261 628.986 361.606C628.732 356.72 625.076 353.511 620.175 354.031C616.513 354.419 612.88 355.078 609.263 355.612C609.263 362.308 609.263 369.044 609.263 375.734C611.262 375.734 612.995 375.734 615.001 375.734C615.001 372.178 615.034 368.884 614.991 365.591C614.952 362.61 616.371 360.041 619.182 360.344C620.624 360.5 622.473 363.564 622.834 365.55C623.439 368.873 622.999 372.386 622.999 375.718C625.288 375.718 627.019 375.718 629 375.718C629 372.807 629 370.174 629 366.584ZM431 398.892C431.381 396.153 431.382 392.822 435.312 393.089C439.139 393.35 439.097 396.476 439.016 399.406C438.94 402.182 439 404.961 439 407.748C441.241 407.748 442.976 407.748 444.999 407.748C444.999 402.706 445.139 397.904 444.954 393.115C444.806 389.295 442.521 387.156 438.714 387.034C434.271 386.892 429.82 387.001 425.358 387.001C425.358 394.199 425.358 401.062 425.358 407.822C427.337 407.822 428.958 407.822 431 407.822C431 405.033 431 402.414 431 398.892ZM382.995 388.65C381.724 387.762 380.453 386.874 378.808 385.725C378.808 383.88 378.808 381.602 378.808 379.221C376.815 379.221 375.078 379.221 372.96 379.221C372.96 381.857 372.96 384.278 372.96 386.602C371.383 386.959 370.192 387.228 369.213 387.449C369.213 389.432 369.213 391.047 369.213 392.655C370.607 392.955 371.798 393.211 372.909 393.449C373.281 408.27 374.196 409.755 382.39 408.249C381.001 403.424 379.629 398.653 378.256 393.883C378.948 393.95 379.641 394.018 380.334 394.086C381.223 392.572 382.111 391.058 382.995 388.65ZM476.487 386.993C471.664 387.114 475.146 390.694 473.578 392.679C475.383 392.918 476.59 393.078 478 393.265C478 396.022 477.998 398.495 478 400.968C478.006 407.301 479.757 408.868 487.993 408.647C486.699 406.125 485.851 404.012 484.614 402.16C482.549 399.068 484.358 393.311 487.847 392.345C487.847 390.711 487.847 389.089 487.847 387.29C486.523 387.074 485.316 386.877 484.146 386.686C484.018 383.925 483.907 381.51 483.788 378.937C481.607 379.042 479.866 379.126 478.362 379.198C478.003 382.087 477.704 384.502 476.487 386.993ZM591.388 345.007C589.644 345.007 587.9 345.007 586.326 345.007C586.326 355.754 586.326 365.833 586.326 375.843C588.615 375.843 590.572 375.843 592.328 375.843C592.328 365.482 592.328 355.28 591.388 345.007ZM585 405.28C585 395.873 585 386.465 585 377.188C582.319 377.188 580.367 377.188 578.21 377.188C578.21 387.45 578.21 397.524 578.21 408.782C580.766 407.823 582.88 407.029 585 405.28ZM577.255 364.231C579.312 362.768 581.369 361.305 583.695 359.651C583.695 358.252 583.695 356.161 583.695 354.12C579.031 354.551 574.673 354.953 570.247 355.362C570.247 362.229 570.247 368.972 570.247 375.747C572.572 375.747 574.639 375.747 577.021 375.747C577.021 372.03 577.021 368.56 577.255 364.231ZM414.898 387.38C413.01 387.256 411.123 387.133 409.28 387.012C409.28 394.33 409.28 401.079 409.28 408.042C411.314 407.95 413.057 407.872 414.57 407.803C416.317 402.273 411.574 393.971 421.828 393.568C421.828 391.285 421.828 389.322 421.828 386.847C419.577 387.241 417.58 387.591 414.898 387.38ZM343 394.558C343 392.116 343 389.674 343 387.274C340.394 387.274 338.327 387.274 336.269 387.274C336.269 394.292 336.269 401.032 336.269 407.722C338.618 407.722 340.684 407.722 343 407.722C343 403.478 343 399.507 343 394.558ZM494.474 407.999C495.315 407.336 496.865 406.694 496.886 406.006C497.074 399.734 496.996 393.454 496.996 386.948C494.696 387.05 492.958 387.127 491.002 387.214C491.002 393.56 490.901 399.54 491.114 405.509C491.145 406.367 492.687 407.17 494.474 407.999ZM603.942 375.185C603.942 368.564 603.942 361.943 603.942 355.224C601.818 355.224 600.083 355.224 598.232 355.224C598.232 362.198 598.232 368.947 598.232 375.918C600.091 375.918 601.72 375.918 603.942 375.185ZM648.788 420.001C643.919 421.071 641.802 425.036 643.793 429.355C645.481 433.018 650.181 435.762 652.952 433.695C655.342 431.912 657.619 428.312 657.685 425.463C657.789 420.929 654.056 419.331 648.788 420.001ZM536.002 431.177C536.583 432.089 537.165 433 537.746 433.912C538.162 433.159 538.822 432.443 538.94 431.646C539.139 430.307 538.995 428.918 538.995 426.378C541.784 429.782 543.734 432.162 545.684 434.541C546.12 434.255 546.557 433.97 546.993 433.684C546.993 429.901 547.06 426.115 546.938 422.335C546.913 421.571 546.174 420.829 545.764 420.077C545.177 420.825 544.439 421.503 544.048 422.342C543.695 423.1 543.721 424.035 543.569 424.956C541.251 422.891 539.266 421.123 537.28 419.355C536.854 419.699 536.427 420.043 536 420.388C536 423.676 536 426.965 536.002 431.177ZM588.512 431.025C590.03 432.166 591.548 433.307 593.066 434.448C593.404 434.136 593.742 433.825 594.08 433.513C592.572 430.611 591.595 427.87 592.855 424.477C593.868 421.75 592.44 419.632 588.951 419.988C587.379 420.148 585.793 420.162 584.356 420.235C584.356 425.096 584.356 429.457 584.356 433.819C584.721 433.973 585.087 434.128 585.453 434.282C586.279 433.045 587.105 431.808 588.512 431.025ZM665.68 442.057C664.787 443.643 663.894 445.23 663.14 446.571C661.231 444.884 659.251 443.136 657.272 441.387C656.931 441.757 656.59 442.126 656.249 442.495C656.249 446.583 656.249 450.671 656.249 454.758C656.798 454.902 657.347 455.046 657.896 455.19C658.473 452.969 659.049 450.748 659.675 448.335C662.225 450.439 661.867 455.513 667.17 454.646C666.956 450.423 666.747 446.329 665.68 442.057ZM592.606 454.972C596.615 454.905 601.304 456.05 601.986 449.893C602.776 442.758 599.961 440.858 590.736 442.76C591.054 446.727 591.38 450.779 592.606 454.972ZM616.832 441.356C614.92 441.866 613.008 442.376 611.096 442.886C612.327 445.88 613.558 448.874 614.786 451.862C613.684 451.954 611.957 452.096 610.231 452.239C610.043 452.676 609.855 453.113 609.667 453.55C611.055 454.339 612.395 455.639 613.842 455.771C615.236 455.899 617.98 454.857 617.997 454.267C618.116 450.141 617.681 445.998 616.832 441.356ZM520.162 454.427C524.178 453.561 528.282 450.499 532.116 454.88C532.133 454.899 532.596 454.528 533.018 454.215C531.681 450.805 530.431 447.301 528.898 443.926C528.515 443.084 527.192 442.142 526.352 442.187C525.545 442.23 524.504 443.353 524.086 444.245C522.64 447.324 521.421 450.51 520.162 454.427ZM699.562 441.965C694.74 446.943 701.716 448.38 702.437 451.333C700.506 452.063 698.653 452.764 696.8 453.465C696.944 454.08 697.087 454.695 697.231 455.309C699.839 455.192 702.978 455.881 704.851 454.647C705.927 453.94 704.854 450.111 704.93 447.694C704.982 446.044 705.349 444.405 705.689 441.932C704.004 441.774 702.063 441.593 699.562 441.965ZM677.633 455.986C679.405 455.179 681.177 454.372 682.95 453.565C681.221 453.341 679.145 453.634 677.852 452.763C676.234 451.673 674.295 449.614 674.318 448C674.336 446.745 677.002 445.201 678.771 444.422C679.791 443.973 681.368 444.79 682.694 445.036C682.946 444.405 683.198 443.773 683.449 443.141C681.689 442.43 679.926 441.125 678.17 441.134C674.803 441.151 671.781 442.341 671.029 446.333C670.109 451.223 671.7 453.896 677.633 455.986ZM532 427.307C531.998 425.652 532.125 423.981 531.936 422.347C531.845 421.559 531.156 420.84 530.737 420.09C530.161 420.847 529.272 421.534 529.081 422.379C528.796 423.639 529.301 425.103 528.927 426.313C528.423 427.943 527.404 429.414 526.606 430.953C525.737 429.485 524.449 428.107 524.106 426.524C523.67 424.515 524 422.34 524 420.237C523.568 420.069 523.135 419.902 522.703 419.734C522.139 420.532 521.195 421.282 521.088 422.138C520.842 424.094 521.018 426.101 520.998 428.088C520.961 431.832 522.681 434.066 526.537 433.952C530.08 433.848 532.603 432.422 532 427.307ZM633.341 442.112C629.725 440.108 625.56 440.43 623.629 443.476C622.114 445.865 622.068 450.42 623.369 453.009C624.648 455.554 628.374 457.303 631.895 455.036C632.674 454.535 633.239 453.701 633.903 453.021C633.082 452.69 632.122 451.905 631.463 452.105C627.859 453.203 624.982 452.836 625.092 448.369C625.204 443.809 628.429 444.219 631.729 444.864C632.283 444.973 633.151 443.479 633.341 442.112ZM549.375 454.943C550.223 453.431 551.07 451.918 552.083 450.11C554.837 450.06 558.693 449.858 557.831 445.378C556.648 439.222 551.731 442.928 547.801 441.986C548.057 446.665 548.279 450.724 549.375 454.943ZM604.987 430.37C603.745 427.964 602.504 425.559 601.338 423.299C602.094 422.868 603.6 422.009 605.107 421.15C604.935 420.859 604.762 420.567 604.589 420.276C602.157 420.276 599.725 420.276 595.66 420.276C597.698 424.306 599.275 427.424 600.92 430.678C599.205 430.491 597.741 430.331 594.634 429.993C596.484 432.068 597.529 433.922 598.123 433.787C600.466 433.255 602.667 432.098 604.987 430.37ZM543.911 449.532C544.092 447.363 545.092 443.753 544.296 443.3C542.116 442.059 539.179 442.146 536.469 441.695C536.469 446.623 536.469 450.75 536.469 454.878C536.916 454.995 537.363 455.113 537.809 455.231C538.43 453.547 539.051 451.864 539.698 450.11C540.829 450.047 541.986 449.982 543.911 449.532ZM562.001 425.451C560.768 423.488 561.709 419.484 556.845 420.3C559.206 425.177 558.98 430.98 564.222 434.562C566.017 429.446 567.578 424.996 569.14 420.545C568.588 420.224 568.036 419.903 567.484 419.583C566.616 420.846 565.815 422.164 564.859 423.357C564.032 424.388 563.029 425.278 562.001 425.451ZM575.47 433.999C576.92 433.928 578.37 433.857 581.372 433.71C578.364 431.42 576.479 429.986 573.652 427.835C576.97 427.061 578.491 426.706 580.012 426.352C579.95 426.059 579.888 425.767 579.826 425.474C578.234 425.107 576.643 424.74 574.717 424.296C576.806 423.049 578.358 422.123 579.91 421.197C577.986 420.803 576.07 420.358 574.133 420.045C573.556 419.952 572.919 420.229 572.005 420.389C572.005 424.204 571.837 427.832 572.122 431.423C572.195 432.339 573.705 433.141 575.47 433.999ZM689.874 445.893C690.203 445.267 690.404 444.246 690.885 444.091C692.172 443.675 693.578 443.631 694.937 443.439C694.867 443.083 694.797 442.727 694.727 442.371C691.891 442.371 689.055 442.371 686.381 442.371C686.381 446.784 686.381 450.819 686.381 455.158C689.485 454.947 692.18 454.764 694.875 454.581C694.858 454.189 694.84 453.797 694.823 453.405C692.955 453.146 691.087 452.887 687.762 452.426C689.384 450.785 690.197 449.819 691.157 449.032C691.993 448.348 692.994 447.865 693.922 447.293C692.853 446.857 691.785 446.42 689.874 445.893ZM652.808 453.651C650.941 453.278 649.074 452.905 646.564 452.404C647.174 451.14 647.435 449.843 648.225 449.152C649.234 448.271 650.67 447.88 651.922 447.278C650.53 446.785 649.117 446.341 647.761 445.764C647.44 445.627 647.311 445.041 646.954 444.419C649.097 444.081 651.009 443.779 652.92 443.477C652.872 443.124 652.823 442.771 652.775 442.418C650.002 442.418 647.229 442.418 644.269 442.418C644.269 446.54 644.269 450.576 644.269 455.141C647.292 454.923 650.026 454.725 652.808 453.651ZM664.21 423.536C666.103 423.203 667.997 422.871 670.808 422.377C667.709 418.41 664.307 420.667 661.279 420.102C661.279 424.973 661.279 429.387 661.279 433.8C661.837 433.941 662.396 434.082 662.954 434.223C663.472 432.31 663.991 430.396 664.465 428.643C666.11 427.985 667.684 427.356 669.257 426.727C669.117 426.314 668.978 425.9 668.838 425.487C667.288 425.119 665.737 424.751 664.21 423.536ZM586.951 447.534C585.337 446.693 583.722 445.853 581.512 444.703C583.731 444.137 585.346 443.725 586.961 443.313C586.89 442.986 586.819 442.658 586.747 442.331C584.264 442.331 581.78 442.331 579.342 442.331C579.342 446.716 579.342 450.761 579.342 455.118C582.106 454.943 584.498 454.791 586.889 454.639C586.878 454.251 586.867 453.863 586.856 453.475C585.335 453.196 583.815 452.917 582.401 452.657C580.466 447.381 585.508 449.926 586.951 447.534ZM630.706 421.878C629.387 421.109 628.067 420.34 626.748 419.572C626.554 419.886 626.359 420.2 626.165 420.513C627.944 425.084 629.722 429.655 631.597 434.472C633.471 429.131 635.022 424.71 636.927 419.279C634.593 420.432 633.046 421.197 630.706 421.878ZM621 429.418C621.753 426.403 622.506 423.387 623.346 420.021C621.003 420.021 618.377 419.944 615.763 420.08C615.178 420.111 614.632 420.889 614.068 421.324C614.524 421.867 614.88 422.589 615.458 422.91C616.215 423.33 617.148 423.433 618.253 423.742C618.253 427.289 618.253 430.549 618.253 433.809C618.776 433.935 619.299 434.061 619.822 434.187C620.215 432.902 620.607 431.618 621 429.418ZM342.388 377.932C339.726 375.993 337.15 376.545 335.646 379.11C335.016 380.183 335.618 383.015 336.616 383.749C337.899 384.692 341.163 385.121 341.752 384.361C342.846 382.949 342.62 380.515 342.388 377.932ZM492.942 377.027C490.501 378.354 488.751 380.341 490.639 382.899C491.567 384.156 494.153 385.078 495.652 384.725C496.724 384.473 497.645 381.912 497.911 380.265C498.413 377.152 496.157 376.838 492.942 377.027ZM597.408 345.137C597.938 347.412 598.468 349.687 598.997 351.962C600.694 351.526 602.915 351.58 603.924 350.501C604.764 349.604 604.759 346.293 604.111 345.946C602.456 345.057 600.234 345.226 597.408 345.137ZM561.701 454.828C564.086 454.828 566.472 454.828 568.857 454.828C568.852 454.37 568.846 453.912 568.84 453.454C567.323 453.18 565.806 452.905 563.868 452.554C563.868 449.011 563.868 445.601 563.868 442.022C560.705 443.259 560.705 443.259 561.701 454.828ZM610.986 421.88C610.424 421.283 609.862 420.687 609.299 420.09C608.873 420.659 608.099 421.216 608.079 421.798C607.961 425.246 607.935 428.703 608.093 432.147C608.121 432.757 609.16 433.321 609.732 433.907C610.149 433.329 610.902 432.765 610.926 432.171C611.051 429.054 610.993 425.928 610.986 421.88ZM554 428.402C554 425.661 554 422.92 554 419.941C550.736 421.257 550.057 426.546 551.637 433.815C552.114 433.924 552.592 434.034 553.069 434.143C553.379 432.542 553.69 430.94 554 428.402ZM574.418 442.193C573.624 442.679 572.169 443.131 572.141 443.659C571.941 447.372 572.035 451.101 572.035 455.054C575.236 453.745 575.236 453.745 574.418 442.193ZM637.002 444.797C637.007 447.589 636.942 450.384 637.074 453.17C637.103 453.766 637.849 454.329 638.265 454.907C638.838 454.323 639.873 453.764 639.906 453.152C640.074 450.041 640.046 446.913 639.922 443.798C639.898 443.213 639.126 442.659 638.699 442.09C638.137 442.686 637.576 443.281 637.002 444.797Z" fill="white"/>
<path d="M127.048 330.575C135.255 352.913 143.17 374.927 151.084 396.941C151.463 396.971 151.843 397.001 152.222 397.031C154.817 389.818 157.442 382.617 159.999 375.391C165.038 361.154 169.973 346.879 175.17 332.7C175.613 331.493 177.683 330.138 179.017 330.117C191.504 329.921 203.996 330 217.025 330C211.948 344.018 206.922 357.727 202.014 371.479C192.293 398.713 182.677 425.985 172.828 453.172C172.363 454.456 170.074 455.847 168.608 455.877C157.618 456.103 146.618 455.842 135.63 456.101C132.515 456.175 131.024 454.912 130.125 452.397C121.741 428.952 113.408 405.488 105.025 382.041C99.131 365.556 93.18 349.092 87.2753 332.611C87.0616 332.014 87.0705 331.338 86.9092 330.251C100.333 330.251 113.544 330.251 127.048 330.575ZM123.95 403.649C127.218 412.882 130.411 422.142 133.785 431.336C135.584 436.238 136.424 443.227 139.998 445.293C144.256 447.754 150.98 445.95 156.636 445.98C156.931 445.982 157.226 445.852 157.818 445.715C156.872 443.434 155.848 441.244 155.04 438.977C143.671 407.063 132.355 375.129 120.897 343.246C120.425 341.933 118.745 340.222 117.537 340.148C112.118 339.812 106.665 340.001 100.877 340.001C108.532 361.329 116.008 382.159 123.95 403.649Z" fill="#231F20"/>
<path d="M235.695 353.285C234.018 345.534 232.59 338.114 231.075 330.243C257.045 330.243 281.781 330.243 307.08 330.243C298.603 353.638 290.18 376.885 281.596 400.575C259.105 391.381 243.113 376.812 235.695 353.285Z" fill="#231F20"/>
<path d="M244.101 414.59C253.378 418.19 257.921 428.403 256.892 436.024C255.668 445.095 250.477 452.765 239.429 455.247C230.041 457.357 219.146 450.982 215.947 443.883C211.975 435.066 213.19 426.067 219.842 419.039C226.19 412.333 234.905 411.273 244.101 414.59Z" fill="#231F20"/>
<path d="M530.783 354.665C538.398 353.501 542.79 356.535 543.983 363.279C545.067 369.404 541.424 375.277 535.578 376.755C534.796 376.952 533.698 377.277 533.18 376.917C529.465 374.336 525.414 376.353 521.283 375.903C521.283 365.708 521.283 355.523 521.283 345.169C523.05 345.169 524.67 345.169 526.791 345.169C526.791 348.616 526.791 352.173 526.791 356.182C528.406 355.641 529.436 355.296 530.783 354.665ZM528.455 367.959C530.422 370.026 532.743 372.074 535.141 369.117C536.317 367.666 537.002 364.695 536.291 363.165C535.638 361.763 532.66 360.452 530.971 360.726C527.395 361.307 527.234 364.328 528.455 367.959Z" fill="#1D1C1A"/>
<path d="M552.588 390.927C555.762 389.438 558.538 387.62 561.525 387.149C565.402 386.539 569.448 387 573.71 387C573.71 393.982 573.71 400.869 573.71 407.396C570.006 407.947 566.487 408.585 562.942 408.977C554.196 409.942 548.809 402.829 551.501 393.979C551.781 393.058 552.024 392.125 552.588 390.927ZM560.849 393.035C559.905 395.254 558.558 397.413 558.218 399.721C558.082 400.638 560.018 402.531 561.293 402.849C564.114 403.552 566.592 402.609 566.971 399.197C567.398 395.353 566.271 392.648 560.849 393.035Z" fill="#1D1C1A"/>
<path d="M460.54 408.989C456.063 409.31 452.178 408.909 450.02 404.886C447.512 400.214 447.423 395.181 450.248 390.778C451.437 388.925 454.326 387.444 456.61 387.166C461.166 386.61 465.838 387.001 471 387.001C471 390.564 471 393.996 471 397.427C471 400.878 471 404.329 471 407.306C467.335 407.917 464.149 408.448 460.54 408.989ZM458.032 402.542C461.776 404.17 463.956 401.619 464.709 398.931C465.125 397.447 463.309 394.484 461.707 393.559C460.453 392.835 457.209 393.59 456.217 394.805C454.327 397.119 454.101 400.105 458.032 402.542Z" fill="#1D1C1A"/>
<path d="M398.443 402.835C403.109 398.426 403.599 402.876 405.16 405.188C399.339 409.824 392.622 410.469 388.468 406.942C384.833 403.857 383.209 396.558 385.217 392.337C387.112 388.354 394.765 385.612 399.59 387.186C403.74 388.539 406.186 393.548 405.645 399.981C400.952 399.981 396.223 399.981 391.495 399.981C391.404 400.546 391.313 401.111 391.223 401.676C393.502 402.109 395.782 402.541 398.443 402.835Z" fill="#1D1C1A"/>
<path d="M564.461 374.848C554.797 379.998 546.777 373.88 545.99 367.498C545.396 362.683 546.713 358.689 550.73 355.853C554.562 353.147 558.927 353.266 562.674 355.401C566.766 357.732 567.817 361.934 566.611 367.073C562.23 367.073 557.698 367.073 552.849 367.073C556.127 371.956 556.982 371.994 563.574 367.847C564.024 370.21 568.902 371.406 564.461 374.848Z" fill="#1D1C1A"/>
<path d="M521.245 406.252C516.899 409.065 512.517 410.035 507.962 408.402C501.976 406.256 499.272 399.691 501.676 393.822C504.187 387.689 510.915 385.095 517.292 387.799C524.578 390.888 525.938 396.719 521.245 406.252ZM507.509 399.009C508.616 401.927 510.701 404.032 513.764 402.806C515.524 402.102 517.656 399.635 517.648 397.972C517.64 396.314 515.475 393.889 513.706 393.19C510.603 391.963 508.598 394.175 507.479 397.043C507.309 397.479 507.192 397.935 507.509 399.009Z" fill="#1D1C1A"/>
<path d="M359.92 387C365.942 386.568 367.317 390.699 367.866 394.75C368.437 398.967 367.993 403.322 367.993 407.799C365.53 407.799 363.463 407.799 360.999 407.799C360.999 403.982 361.297 400.316 360.847 396.744C360.676 395.385 358.787 394.243 357.681 393.001C356.459 394.166 354.36 395.211 354.181 396.519C353.693 400.096 354.013 403.783 354.013 407.712C351.694 407.712 349.625 407.712 347.275 407.712C347.275 401.038 347.275 394.288 347.275 387C351.336 387 355.414 387 359.92 387Z" fill="#1D1C1A"/>
<path d="M538.834 393.025C534.948 393.02 533.904 395.053 533.982 398.17C534.061 401.293 534 404.419 534 407.77C531.599 407.77 529.534 407.77 527.231 407.77C527.231 400.942 527.231 394.204 527.231 387.002C532.221 387.002 537.136 386.874 542.042 387.041C546.432 387.19 547.508 390.818 547.875 394.079C548.371 398.488 547.998 402.995 547.998 407.728C546.001 407.728 544.268 407.728 542.43 407.728C540.641 403.039 544.363 397.059 538.834 393.025Z" fill="#1D1C1A"/>
<path d="M629 367.063C629 370.174 629 372.807 629 375.718C627.019 375.718 625.288 375.718 622.999 375.718C622.999 372.386 623.439 368.873 622.834 365.55C622.473 363.564 620.624 360.5 619.182 360.344C616.371 360.041 614.952 362.61 614.991 365.591C615.034 368.884 615.001 372.178 615.001 375.734C612.995 375.734 611.262 375.734 609.263 375.734C609.263 369.044 609.263 362.308 609.263 355.612C612.88 355.078 616.513 354.419 620.175 354.031C625.076 353.511 628.733 356.72 628.986 361.606C629.072 363.261 629 364.924 629 367.063Z" fill="#1D1C1A"/>
<path d="M431 399.343C431 402.414 431 405.033 431 407.822C428.957 407.822 427.337 407.822 425.357 407.822C425.357 401.062 425.357 394.198 425.357 387.001C429.82 387.001 434.271 386.892 438.714 387.034C442.52 387.156 444.806 389.295 444.954 393.115C445.139 397.904 444.998 402.706 444.998 407.748C442.975 407.748 441.241 407.748 439 407.748C439 404.961 438.94 402.182 439.016 399.406C439.096 396.475 439.139 393.35 435.311 393.089C431.382 392.822 431.38 396.153 431 399.343Z" fill="#1D1C1A"/>
<path d="M382.997 389.097C382.111 391.058 381.223 392.572 380.335 394.086C379.642 394.018 378.949 393.95 378.256 393.883C379.629 398.653 381.002 403.424 382.39 408.25C374.196 409.755 373.281 408.27 372.909 393.45C371.799 393.211 370.607 392.955 369.213 392.656C369.213 391.047 369.213 389.432 369.213 387.449C370.192 387.228 371.384 386.959 372.96 386.603C372.96 384.278 372.96 381.857 372.96 379.222C375.078 379.222 376.815 379.222 378.808 379.222C378.808 381.602 378.808 383.88 378.808 385.725C380.453 386.874 381.724 387.762 382.997 389.097Z" fill="#1D1C1A"/>
<path d="M476.945 386.954C477.704 384.501 478.003 382.087 478.362 379.199C479.866 379.126 481.607 379.042 483.788 378.938C483.907 381.51 484.018 383.926 484.146 386.686C485.316 386.877 486.523 387.073 487.847 387.289C487.847 389.088 487.847 390.71 487.847 392.344C484.358 393.311 482.549 399.068 484.614 402.16C485.851 404.013 486.699 406.124 487.993 408.646C479.757 408.867 478.006 407.3 478 400.967C477.998 398.494 478 396.022 478 393.266C476.59 393.079 475.383 392.917 473.578 392.678C475.146 390.693 471.664 387.113 476.945 386.954Z" fill="#1D1C1A"/>
<path d="M591.858 345.043C592.328 355.28 592.328 365.482 592.328 375.843C590.572 375.843 588.615 375.843 586.326 375.843C586.326 365.833 586.326 355.754 586.326 345.007C587.9 345.007 589.644 345.007 591.858 345.043Z" fill="#1D1C1A"/>
<path d="M584.998 405.757C582.881 407.029 580.766 407.823 578.21 408.782C578.21 397.524 578.21 387.45 578.21 377.188C580.367 377.188 582.319 377.188 585 377.188C585 386.465 585 395.872 584.998 405.757Z" fill="#1D1C1A"/>
<path d="M577.138 364.66C577.021 368.56 577.021 372.03 577.021 375.747C574.64 375.747 572.572 375.747 570.247 375.747C570.247 368.972 570.247 362.229 570.247 355.362C574.673 354.953 579.031 354.551 583.695 354.12C583.695 356.161 583.695 358.252 583.695 359.651C581.369 361.305 579.312 362.768 577.138 364.66Z" fill="#1D1C1A"/>
<path d="M415.24 387.661C417.58 387.591 419.577 387.242 421.828 386.848C421.828 389.323 421.828 391.285 421.828 393.569C411.574 393.971 416.317 402.274 414.57 407.804C413.057 407.872 411.314 407.95 409.28 408.042C409.28 401.079 409.28 394.33 409.28 387.012C411.123 387.133 413.01 387.257 415.24 387.661Z" fill="#1D1C1A"/>
<path d="M343 395.047C343 399.507 343 403.478 343 407.721C340.684 407.721 338.618 407.721 336.27 407.721C336.27 401.032 336.27 394.291 336.27 387.273C338.327 387.273 340.394 387.273 343 387.273C343 389.673 343 392.115 343 395.047Z" fill="#1D1C1A"/>
<path d="M494.001 408C492.686 407.171 491.144 406.367 491.114 405.509C490.901 399.54 491.001 393.56 491.001 387.214C492.958 387.127 494.696 387.05 496.996 386.948C496.996 393.454 497.074 399.734 496.885 406.007C496.865 406.694 495.314 407.336 494.001 408Z" fill="#1D1C1A"/>
<path d="M603.646 375.551C601.72 375.918 600.091 375.918 598.232 375.918C598.232 368.947 598.232 362.198 598.232 355.224C600.083 355.224 601.818 355.224 603.942 355.224C603.942 361.943 603.942 368.564 603.646 375.551Z" fill="#1D1C1A"/>
<path d="M649.215 420.001C654.056 419.331 657.788 420.929 657.684 425.463C657.619 428.312 655.342 431.912 652.952 433.695C650.181 435.762 645.481 433.018 643.792 429.355C641.801 425.036 643.918 421.071 649.215 420.001ZM648.457 429.959C650.192 429.841 652.086 430.09 653.586 429.436C654.238 429.151 654.709 426.391 654.163 425.836C652.87 424.524 650.628 422.781 649.294 423.142C645.817 424.085 646.605 426.877 648.457 429.959Z" fill="#1D9CD7"/>
<path d="M536.001 430.715C536 426.965 536 423.676 536 420.388C536.427 420.043 536.853 419.699 537.28 419.354C539.266 421.123 541.251 422.891 543.569 424.956C543.721 424.035 543.695 423.1 544.048 422.342C544.439 421.503 545.177 420.825 545.763 420.077C546.173 420.829 546.913 421.571 546.938 422.335C547.06 426.115 546.993 429.901 546.993 433.684C546.557 433.97 546.12 434.254 545.684 434.54C543.734 432.161 541.784 429.782 538.994 426.377C538.994 428.918 539.139 430.307 538.94 431.646C538.821 432.443 538.162 433.158 537.746 433.911C537.165 432.999 536.583 432.089 536.001 430.715Z" fill="#1D9CD7"/>
<path d="M588.221 430.798C587.105 431.808 586.279 433.045 585.453 434.282C585.087 434.127 584.721 433.973 584.355 433.818C584.355 429.457 584.355 425.096 584.355 420.235C585.792 420.162 587.379 420.147 588.951 419.987C592.44 419.632 593.867 421.75 592.855 424.477C591.595 427.869 592.572 430.61 594.08 433.513C593.742 433.824 593.404 434.136 593.066 434.447C591.548 433.306 590.03 432.166 588.221 430.798Z" fill="#1D9CD7"/>
<path d="M666.109 442.147C666.747 446.33 666.956 450.423 667.17 454.646C661.867 455.513 662.224 450.439 659.675 448.335C659.049 450.749 658.472 452.97 657.896 455.191C657.347 455.047 656.798 454.903 656.249 454.759C656.249 450.671 656.249 446.583 656.249 442.495C656.59 442.126 656.931 441.757 657.272 441.388C659.251 443.136 661.231 444.884 663.14 446.571C663.894 445.23 664.787 443.644 666.109 442.147Z" fill="#1D9CD7"/>
<path d="M592.155 454.901C591.379 450.779 591.054 446.727 590.735 442.76C599.96 440.858 602.776 442.758 601.986 449.893C601.304 456.051 596.615 454.905 592.155 454.901ZM598.989 447.691C597.683 446.33 596.378 444.969 594.363 442.869C594.363 447.139 594.363 449.964 594.363 452.788C594.783 452.998 595.204 453.208 595.624 453.417C596.748 451.778 597.873 450.139 598.989 447.691Z" fill="#1D9CD7"/>
<path d="M617.127 441.607C617.68 445.997 618.115 450.14 617.996 454.266C617.98 454.856 615.236 455.898 613.842 455.77C612.394 455.638 611.054 454.338 609.667 453.549C609.855 453.112 610.043 452.675 610.23 452.238C611.957 452.095 613.683 451.953 614.786 451.861C613.557 448.873 612.327 445.879 611.096 442.885C613.008 442.375 614.92 441.865 617.127 441.607Z" fill="#1D9CD7"/>
<path d="M520.139 454.042C521.421 450.51 522.64 447.324 524.086 444.245C524.504 443.353 525.545 442.23 526.352 442.187C527.192 442.142 528.515 443.084 528.898 443.926C530.431 447.301 531.681 450.805 533.018 454.215C532.596 454.528 532.133 454.9 532.116 454.881C528.282 450.5 524.178 453.561 520.139 454.042Z" fill="#1D9CD7"/>
<path d="M699.842 441.689C702.063 441.593 704.005 441.774 705.689 441.932C705.349 444.405 704.983 446.044 704.931 447.694C704.854 450.111 705.927 453.94 704.852 454.648C702.978 455.881 699.84 455.192 697.232 455.31C697.088 454.695 696.944 454.08 696.801 453.465C698.654 452.764 700.507 452.063 702.437 451.333C701.716 448.38 694.74 446.943 699.842 441.689Z" fill="#1D9CD7"/>
<path d="M677.224 455.955C671.7 453.896 670.109 451.223 671.029 446.333C671.781 442.341 674.803 441.151 678.17 441.134C679.926 441.125 681.689 442.43 683.449 443.142C683.198 443.773 682.946 444.405 682.694 445.037C681.368 444.79 679.791 443.974 678.771 444.422C677.002 445.201 674.336 446.745 674.318 448C674.295 449.615 676.234 451.674 677.852 452.763C679.145 453.634 681.221 453.342 682.949 453.566C681.177 454.372 679.405 455.179 677.224 455.955Z" fill="#1D9CD7"/>
<path d="M532 427.755C532.603 432.421 530.079 433.847 526.537 433.951C522.681 434.065 520.961 431.831 520.998 428.086C521.018 426.1 520.841 424.093 521.087 422.137C521.195 421.281 522.139 420.531 522.703 419.733C523.135 419.901 523.568 420.068 524 420.236C524 422.339 523.67 424.514 524.106 426.523C524.449 428.106 525.737 429.483 526.606 430.952C527.404 429.413 528.423 427.942 528.927 426.311C529.301 425.102 528.796 423.638 529.081 422.378C529.272 421.533 530.16 420.846 530.737 420.089C531.155 420.839 531.844 421.558 531.936 422.346C532.125 423.98 531.997 425.651 532 427.755Z" fill="#1D9CD7"/>
<path d="M633.607 442.419C633.151 443.479 632.283 444.973 631.728 444.865C628.428 444.22 625.203 443.81 625.091 448.369C624.981 452.836 627.858 453.203 631.462 452.106C632.121 451.905 633.081 452.691 633.903 453.021C633.239 453.702 632.673 454.535 631.894 455.037C628.373 457.303 624.647 455.554 623.368 453.009C622.068 450.421 622.114 445.865 623.628 443.476C625.56 440.43 629.724 440.108 633.607 442.419Z" fill="#1D9CD7"/>
<path d="M548.938 454.863C548.279 450.724 548.057 446.665 547.801 441.986C551.73 442.927 556.648 439.222 557.831 445.378C558.692 449.858 554.836 450.06 552.082 450.11C551.069 451.918 550.222 453.43 548.938 454.863Z" fill="#1D9CD7"/>
<path d="M604.954 430.77C602.667 432.097 600.466 433.254 598.123 433.786C597.529 433.921 596.484 432.067 594.634 429.992C597.741 430.33 599.205 430.49 600.92 430.677C599.275 427.423 597.698 424.305 595.66 420.274C599.725 420.274 602.157 420.274 604.59 420.274C604.762 420.566 604.935 420.857 605.107 421.149C603.601 422.008 602.094 422.867 601.338 423.298C602.504 425.558 603.746 427.963 604.954 430.77Z" fill="#1D9CD7"/>
<path d="M543.527 449.725C541.986 449.982 540.829 450.047 539.698 450.11C539.051 451.864 538.43 453.547 537.809 455.231C537.362 455.113 536.916 454.995 536.469 454.878C536.469 450.75 536.469 446.623 536.469 441.695C539.179 442.146 542.116 442.059 544.296 443.3C545.092 443.753 544.092 447.363 543.527 449.725Z" fill="#1D9CD7"/>
<path d="M562.052 425.841C563.029 425.278 564.032 424.388 564.858 423.357C565.815 422.164 566.616 420.846 567.484 419.583C568.036 419.904 568.588 420.224 569.14 420.545C567.578 424.996 566.017 429.447 564.222 434.562C558.98 430.98 559.205 425.177 556.845 420.3C561.709 419.484 560.768 423.488 562.052 425.841Z" fill="#1D9CD7"/>
<path d="M575.013 433.997C573.705 433.141 572.195 432.339 572.122 431.423C571.837 427.831 572.006 424.204 572.006 420.389C572.92 420.228 573.556 419.952 574.133 420.045C576.07 420.358 577.986 420.803 579.91 421.197C578.358 422.123 576.806 423.049 574.717 424.296C576.643 424.74 578.235 425.107 579.826 425.474C579.888 425.766 579.95 426.059 580.012 426.351C578.491 426.706 576.97 427.061 573.652 427.835C576.479 429.986 578.364 431.42 581.372 433.709C578.37 433.857 576.92 433.928 575.013 433.997Z" fill="#1D9CD7"/>
<path d="M690.296 445.939C691.785 446.42 692.853 446.856 693.921 447.293C692.994 447.865 691.993 448.348 691.157 449.032C690.197 449.819 689.384 450.785 687.762 452.426C691.087 452.887 692.955 453.146 694.823 453.405C694.84 453.797 694.857 454.189 694.875 454.581C692.18 454.764 689.485 454.947 686.381 455.158C686.381 450.819 686.381 446.784 686.381 442.371C689.055 442.371 691.891 442.371 694.727 442.371C694.797 442.727 694.867 443.083 694.937 443.439C693.578 443.631 692.171 443.675 690.885 444.091C690.404 444.246 690.203 445.267 690.296 445.939Z" fill="#1D9CD7"/>
<path d="M652.783 454.089C650.026 454.725 647.292 454.923 644.27 455.141C644.27 450.576 644.27 446.54 644.27 442.418C647.229 442.418 650.002 442.418 652.775 442.418C652.823 442.771 652.872 443.124 652.92 443.477C651.009 443.779 649.097 444.081 646.955 444.419C647.311 445.041 647.44 445.627 647.761 445.764C649.117 446.341 650.53 446.785 651.922 447.278C650.67 447.88 649.234 448.271 648.225 449.152C647.435 449.843 647.174 451.14 646.564 452.404C649.074 452.905 650.941 453.278 652.783 454.089Z" fill="#1D9CD7"/>
<path d="M664.198 423.959C665.737 424.751 667.287 425.119 668.837 425.487C668.977 425.9 669.117 426.314 669.257 426.727C667.684 427.356 666.11 427.985 664.465 428.643C663.99 430.396 663.472 432.31 662.954 434.223C662.396 434.082 661.837 433.941 661.278 433.8C661.278 429.387 661.278 424.973 661.278 420.102C664.307 420.667 667.709 418.41 670.808 422.377C667.997 422.871 666.103 423.203 664.198 423.959Z" fill="#1D9CD7"/>
<path d="M586.893 447.953C585.508 449.926 580.467 447.381 582.401 452.657C583.815 452.917 585.336 453.196 586.856 453.475C586.867 453.863 586.878 454.251 586.89 454.639C584.498 454.791 582.106 454.943 579.343 455.119C579.343 450.762 579.343 446.717 579.343 442.331C581.78 442.331 584.264 442.331 586.748 442.331C586.819 442.659 586.89 442.986 586.962 443.314C585.347 443.725 583.731 444.137 581.513 444.703C583.723 445.854 585.337 446.694 586.893 447.953Z" fill="#1D9CD7"/>
<path d="M631.102 421.919C633.046 421.197 634.593 420.432 636.927 419.279C635.022 424.71 633.471 429.131 631.597 434.472C629.722 429.655 627.944 425.084 626.165 420.513C626.359 420.2 626.554 419.886 626.748 419.572C628.067 420.34 629.387 421.109 631.102 421.919Z" fill="#1D9CD7"/>
<path d="M621 429.876C620.607 431.618 620.214 432.903 619.822 434.187C619.299 434.061 618.776 433.935 618.253 433.81C618.253 430.549 618.253 427.289 618.253 423.742C617.148 423.434 616.215 423.331 615.458 422.911C614.88 422.59 614.523 421.868 614.068 421.324C614.632 420.89 615.178 420.111 615.763 420.081C618.377 419.945 621.003 420.022 623.346 420.022C622.506 423.388 621.753 426.403 621 429.876Z" fill="#1D9CD7"/>
<path d="M342.666 378.22C342.62 380.515 342.845 382.95 341.752 384.361C341.162 385.122 337.899 384.693 336.615 383.749C335.618 383.016 335.016 380.184 335.645 379.11C337.15 376.546 339.726 375.994 342.666 378.22Z" fill="#1D1C1A"/>
<path d="M493.358 377.015C496.157 376.838 498.413 377.152 497.911 380.265C497.645 381.912 496.724 384.473 495.652 384.725C494.153 385.078 491.566 384.156 490.639 382.899C488.751 380.341 490.501 378.354 493.358 377.015Z" fill="#1D1C1A"/>
<path d="M597.823 345.055C600.234 345.226 602.456 345.057 604.111 345.945C604.758 346.293 604.763 349.603 603.924 350.501C602.915 351.58 600.693 351.526 598.997 351.962C598.467 349.687 597.938 347.412 597.823 345.055Z" fill="#1D1C1A"/>
<path d="M561.411 454.471C560.705 443.258 560.705 443.259 563.868 442.021C563.868 445.601 563.868 449.009 563.868 452.553C565.806 452.904 567.323 453.18 568.84 453.454C568.846 453.912 568.852 454.37 568.857 454.827C566.472 454.827 564.086 454.826 561.411 454.471Z" fill="#1D9CD7"/>
<path d="M610.992 422.343C610.993 425.928 611.051 429.053 610.926 432.171C610.902 432.765 610.149 433.329 609.732 433.907C609.16 433.321 608.122 432.757 608.093 432.147C607.935 428.703 607.961 425.246 608.079 421.798C608.099 421.215 608.873 420.659 609.299 420.09C609.862 420.687 610.424 421.283 610.992 422.343Z" fill="#1D9CD7"/>
<path d="M554 428.87C553.689 430.94 553.379 432.541 553.069 434.143C552.591 434.033 552.114 433.924 551.637 433.815C550.056 426.545 550.736 421.256 554 419.94C554 422.919 554 425.66 554 428.87Z" fill="#1D9CD7"/>
<path d="M574.661 442.581C575.236 453.745 575.236 453.745 572.035 455.054C572.035 451.101 571.941 447.372 572.141 443.659C572.169 443.131 573.624 442.68 574.661 442.581Z" fill="#1D9CD7"/>
<path d="M637.008 444.337C637.576 443.282 638.137 442.686 638.699 442.091C639.126 442.659 639.899 443.214 639.922 443.798C640.046 446.913 640.074 450.041 639.906 453.152C639.873 453.765 638.838 454.323 638.265 454.907C637.849 454.329 637.103 453.767 637.074 453.17C636.942 450.385 637.007 447.589 637.008 444.337Z" fill="#1D9CD7"/>
<path d="M123.718 403.319C116.009 382.159 108.533 361.33 100.878 340.001C106.666 340.001 112.118 339.812 117.538 340.148C118.745 340.222 120.426 341.933 120.898 343.246C132.355 375.129 143.671 407.063 155.041 438.977C155.849 441.244 156.872 443.434 157.819 445.716C157.227 445.853 156.932 445.982 156.637 445.98C150.981 445.951 144.256 447.755 139.999 445.294C136.425 443.227 135.585 436.238 133.786 431.336C130.411 422.142 127.219 412.882 123.718 403.319Z" fill="white"/>
<path d="M528.246 367.657C527.234 364.328 527.395 361.307 530.971 360.726C532.66 360.452 535.638 361.763 536.291 363.165C537.002 364.695 536.317 367.666 535.141 369.117C532.742 372.074 530.422 370.026 528.246 367.657Z" fill="white"/>
<path d="M561.264 393.018C566.271 392.647 567.398 395.352 566.971 399.196C566.592 402.608 564.114 403.551 561.293 402.848C560.018 402.53 558.082 400.637 558.218 399.72C558.558 397.412 559.905 395.253 561.264 393.018Z" fill="white"/>
<path d="M457.714 402.292C454.101 400.104 454.328 397.118 456.217 394.804C457.209 393.59 460.453 392.835 461.707 393.558C463.309 394.483 465.125 397.446 464.709 398.931C463.956 401.618 461.776 404.17 457.714 402.292Z" fill="white"/>
<path d="M507.28 398.694C507.192 397.934 507.31 397.478 507.48 397.042C508.598 394.174 510.604 391.962 513.707 393.189C515.475 393.889 517.641 396.313 517.649 397.971C517.657 399.635 515.524 402.101 513.765 402.805C510.702 404.031 508.616 401.927 507.28 398.694Z" fill="white"/>
<path d="M648.191 429.672C646.605 426.877 645.817 424.085 649.294 423.142C650.629 422.78 652.871 424.524 654.163 425.836C654.709 426.39 654.238 429.151 653.586 429.435C652.086 430.089 650.192 429.841 648.191 429.672Z" fill="white"/>
<path d="M598.992 448.096C597.872 450.139 596.748 451.779 595.624 453.418C595.203 453.208 594.783 452.998 594.362 452.789C594.362 449.964 594.362 447.139 594.362 442.869C596.378 444.97 597.683 446.33 598.992 448.096Z" fill="white"/>
</g>
</g>
<defs>
<clipPath id="clip0_6289_4879">
<rect width="792" height="792" fill="white"/>
</clipPath>
</defs>
</svg>
