<svg width="792" height="494" viewBox="0 0 792 494" fill="none" xmlns="http://www.w3.org/2000/svg">
<rect width="792" height="494" fill="white"/>
<g clip-path="url(#clip0_6188_22348)">
<path d="M490 340C354.708 340 219.917 340 85.0625 340C85.0625 278.394 85.0625 216.788 85.0625 155.091C293.333 155.091 501.667 155.091 709.966 155.091C709.966 216.75 709.966 278.375 709.966 340C636.788 340 563.644 340 490 340ZM127.754 181.251C114.544 181.251 101.334 181.251 87.9095 181.251C88.0708 182.337 88.0619 183.014 88.2756 183.61C94.1804 200.091 100.132 216.556 106.026 233.041C114.408 256.487 122.741 279.951 131.125 303.397C132.025 305.911 133.515 307.175 136.63 307.101C147.619 306.841 158.619 307.103 169.608 306.876C171.075 306.846 173.363 305.455 173.828 304.172C183.677 276.985 193.293 249.713 203.014 222.479C207.923 208.727 212.948 195.017 218.026 181C204.996 181 192.504 180.92 180.017 181.117C178.683 181.137 176.613 182.492 176.17 183.7C170.973 197.879 166.038 212.153 160.999 226.391C158.442 233.616 155.817 240.818 153.222 248.03C152.843 248 152.464 247.97 152.084 247.94C144.17 225.927 136.256 203.913 127.754 181.251ZM236.944 204.615C244.113 227.811 260.105 242.381 282.596 251.574C291.18 227.885 299.603 204.637 308.079 181.243C282.781 181.243 258.044 181.243 232.075 181.243C233.59 189.114 235.018 196.534 236.944 204.615ZM244.818 265.303C235.905 262.273 227.19 263.333 220.842 270.039C214.19 277.067 212.975 286.066 216.947 294.883C220.145 301.982 231.041 308.357 240.429 306.248C251.477 303.765 256.668 296.095 257.892 287.025C258.92 279.403 254.378 269.19 244.818 265.303ZM531.467 205.951C530.436 206.296 529.406 206.641 527.791 207.182C527.791 203.173 527.791 199.616 527.791 196.169C525.67 196.169 524.05 196.169 522.283 196.169C522.283 206.523 522.283 216.707 522.283 226.903C526.414 227.352 530.465 225.335 534.18 227.917C534.698 228.276 535.796 227.952 536.578 227.754C542.424 226.276 546.067 220.404 544.983 214.279C543.79 207.535 539.398 204.5 531.467 205.951ZM553.284 242.197C553.024 243.125 552.782 244.058 552.501 244.979C549.81 253.829 555.197 260.941 563.942 259.976C567.488 259.585 571.006 258.947 574.711 258.396C574.711 251.869 574.711 244.981 574.711 238C570.449 238 566.403 237.538 562.526 238.149C559.538 238.62 556.763 240.438 553.284 242.197ZM461.962 259.978C465.149 259.447 468.336 258.916 472 258.306C472 255.328 472 251.878 472 248.427C472 244.995 472 241.564 472 238C466.838 238 462.166 237.609 457.61 238.165C455.326 238.444 452.437 239.925 451.249 241.777C448.423 246.18 448.513 251.214 451.02 255.886C453.179 259.908 457.063 260.31 461.962 259.978ZM399.062 253.973C396.782 253.541 394.503 253.108 392.223 252.676C392.314 252.111 392.405 251.546 392.496 250.981C397.224 250.981 401.952 250.981 406.645 250.981C407.187 244.548 404.74 239.539 400.591 238.185C395.766 236.611 388.113 239.354 386.218 243.337C384.209 247.558 385.834 254.857 389.468 257.942C393.622 261.468 400.34 260.823 406.16 256.188C404.599 253.876 404.109 249.426 399.062 253.973ZM565.816 225.707C569.903 222.406 565.025 221.21 564.575 218.847C557.983 222.995 557.128 222.956 553.85 218.073C558.699 218.073 563.231 218.073 567.611 218.073C568.817 212.934 567.766 208.732 563.675 206.401C559.927 204.266 555.562 204.147 551.73 206.853C547.714 209.689 546.397 213.683 546.991 218.498C547.777 224.88 555.797 230.998 565.816 225.707ZM522.53 256.965C526.938 247.718 525.578 241.887 518.292 238.798C511.915 236.094 505.188 238.689 502.676 244.821C500.272 250.69 502.976 257.256 508.962 259.402C513.517 261.035 517.9 260.064 522.53 256.965ZM360.491 238C356.414 238 352.336 238 348.276 238C348.276 245.288 348.276 252.038 348.276 258.712C350.625 258.712 352.694 258.712 355.013 258.712C355.013 254.783 354.693 251.096 355.182 247.519C355.36 246.211 357.459 245.166 358.682 244.001C359.788 245.243 361.677 246.385 361.848 247.744C362.298 251.316 362 254.983 362 258.799C364.464 258.799 366.53 258.799 368.993 258.799C368.993 254.322 369.437 249.967 368.866 245.75C368.317 241.699 366.942 237.569 360.491 238ZM540.253 244.044C545.363 248.058 541.642 254.039 543.43 258.728C545.269 258.728 547.002 258.728 548.999 258.728C548.999 253.994 549.372 249.487 548.875 245.078C548.509 241.818 547.432 238.19 543.042 238.04C538.137 237.873 533.221 238.002 528.232 238.002C528.232 245.204 528.232 251.941 528.232 258.769C530.535 258.769 532.6 258.769 535 258.769C535 255.419 535.062 252.292 534.983 249.169C534.904 246.052 535.949 244.019 540.253 244.044ZM630 217.584C630 215.924 630.072 214.261 629.986 212.606C629.732 207.72 626.076 204.511 621.175 205.031C617.513 205.419 613.88 206.078 610.263 206.612C610.263 213.308 610.263 220.044 610.263 226.734C612.262 226.734 613.995 226.734 616.001 226.734C616.001 223.178 616.034 219.884 615.991 216.591C615.952 213.61 617.371 211.041 620.182 211.344C621.624 211.5 623.473 214.564 623.834 216.55C624.439 219.873 623.999 223.386 623.999 226.718C626.288 226.718 628.019 226.718 630 226.718C630 223.807 630 221.174 630 217.584ZM432 249.892C432.381 247.153 432.382 243.822 436.312 244.089C440.139 244.35 440.097 247.476 440.016 250.406C439.94 253.182 440 255.961 440 258.748C442.241 258.748 443.976 258.748 445.999 258.748C445.999 253.706 446.139 248.904 445.954 244.115C445.806 240.295 443.521 238.156 439.714 238.034C435.271 237.892 430.82 238.001 426.358 238.001C426.358 245.199 426.358 252.062 426.358 258.822C428.337 258.822 429.958 258.822 432 258.822C432 256.033 432 253.414 432 249.892ZM383.995 239.65C382.724 238.762 381.453 237.874 379.808 236.725C379.808 234.88 379.808 232.602 379.808 230.221C377.815 230.221 376.078 230.221 373.96 230.221C373.96 232.857 373.96 235.278 373.96 237.602C372.383 237.959 371.192 238.228 370.213 238.449C370.213 240.432 370.213 242.047 370.213 243.655C371.607 243.955 372.798 244.211 373.909 244.449C374.281 259.27 375.196 260.755 383.39 259.249C382.001 254.424 380.629 249.653 379.256 244.883C379.948 244.95 380.641 245.018 381.334 245.086C382.223 243.572 383.111 242.058 383.995 239.65ZM477.487 237.993C472.664 238.114 476.146 241.694 474.578 243.679C476.383 243.918 477.59 244.078 479 244.265C479 247.022 478.998 249.495 479 251.968C479.006 258.301 480.757 259.868 488.993 259.647C487.699 257.125 486.851 255.012 485.614 253.16C483.549 250.068 485.358 244.311 488.847 243.345C488.847 241.711 488.847 240.089 488.847 238.29C487.523 238.074 486.316 237.877 485.146 237.686C485.018 234.925 484.907 232.51 484.788 229.937C482.607 230.042 480.866 230.126 479.362 230.198C479.003 233.087 478.704 235.502 477.487 237.993ZM592.388 196.007C590.644 196.007 588.9 196.007 587.326 196.007C587.326 206.754 587.326 216.833 587.326 226.843C589.615 226.843 591.572 226.843 593.328 226.843C593.328 216.482 593.328 206.28 592.388 196.007ZM586 256.28C586 246.873 586 237.465 586 228.188C583.319 228.188 581.367 228.188 579.21 228.188C579.21 238.45 579.21 248.524 579.21 259.782C581.766 258.823 583.88 258.029 586 256.28ZM578.255 215.231C580.312 213.768 582.369 212.305 584.695 210.651C584.695 209.252 584.695 207.161 584.695 205.12C580.031 205.551 575.673 205.953 571.247 206.362C571.247 213.229 571.247 219.972 571.247 226.747C573.572 226.747 575.639 226.747 578.021 226.747C578.021 223.03 578.021 219.56 578.255 215.231ZM415.898 238.38C414.01 238.256 412.123 238.133 410.28 238.012C410.28 245.33 410.28 252.079 410.28 259.042C412.314 258.95 414.057 258.872 415.57 258.803C417.317 253.273 412.574 244.971 422.828 244.568C422.828 242.285 422.828 240.322 422.828 237.847C420.577 238.241 418.58 238.591 415.898 238.38ZM344 245.558C344 243.116 344 240.674 344 238.274C341.394 238.274 339.327 238.274 337.269 238.274C337.269 245.292 337.269 252.032 337.269 258.722C339.618 258.722 341.684 258.722 344 258.722C344 254.478 344 250.507 344 245.558ZM495.474 258.999C496.315 258.336 497.865 257.694 497.886 257.006C498.074 250.734 497.996 244.454 497.996 237.948C495.696 238.05 493.958 238.127 492.002 238.214C492.002 244.56 491.901 250.54 492.114 256.509C492.145 257.367 493.687 258.17 495.474 258.999ZM604.942 226.185C604.942 219.564 604.942 212.943 604.942 206.224C602.818 206.224 601.083 206.224 599.232 206.224C599.232 213.198 599.232 219.947 599.232 226.918C601.091 226.918 602.72 226.918 604.942 226.185ZM649.788 271.001C644.919 272.071 642.802 276.036 644.793 280.355C646.481 284.018 651.181 286.762 653.952 284.695C656.342 282.912 658.619 279.312 658.685 276.463C658.789 271.929 655.056 270.331 649.788 271.001ZM537.002 282.177C537.583 283.089 538.165 284 538.746 284.912C539.162 284.159 539.822 283.443 539.94 282.646C540.139 281.307 539.995 279.918 539.995 277.378C542.784 280.782 544.734 283.162 546.684 285.541C547.12 285.255 547.557 284.97 547.993 284.684C547.993 280.901 548.06 277.115 547.938 273.335C547.913 272.571 547.174 271.829 546.764 271.077C546.177 271.825 545.439 272.503 545.048 273.342C544.695 274.1 544.721 275.035 544.569 275.956C542.251 273.891 540.266 272.123 538.28 270.355C537.854 270.699 537.427 271.043 537 271.388C537 274.676 537 277.965 537.002 282.177ZM589.512 282.025C591.03 283.166 592.548 284.307 594.066 285.448C594.404 285.136 594.742 284.825 595.08 284.513C593.572 281.611 592.595 278.87 593.855 275.477C594.868 272.75 593.44 270.632 589.951 270.988C588.379 271.148 586.793 271.162 585.356 271.235C585.356 276.096 585.356 280.457 585.356 284.819C585.721 284.973 586.087 285.128 586.453 285.282C587.279 284.045 588.105 282.808 589.512 282.025ZM666.68 293.057C665.787 294.643 664.894 296.23 664.14 297.571C662.231 295.884 660.251 294.136 658.272 292.387C657.931 292.757 657.59 293.126 657.249 293.495C657.249 297.583 657.249 301.671 657.249 305.758C657.798 305.902 658.347 306.046 658.896 306.19C659.473 303.969 660.049 301.748 660.675 299.335C663.225 301.439 662.867 306.513 668.17 305.646C667.956 301.423 667.747 297.329 666.68 293.057ZM593.606 305.972C597.615 305.905 602.304 307.05 602.986 300.893C603.776 293.758 600.961 291.858 591.736 293.76C592.054 297.727 592.38 301.779 593.606 305.972ZM617.832 292.356C615.92 292.866 614.008 293.376 612.096 293.886C613.327 296.88 614.558 299.874 615.786 302.862C614.684 302.954 612.957 303.096 611.231 303.239C611.043 303.676 610.855 304.113 610.667 304.55C612.055 305.339 613.395 306.639 614.842 306.771C616.236 306.899 618.98 305.857 618.997 305.267C619.116 301.141 618.681 296.998 617.832 292.356ZM521.162 305.427C525.178 304.561 529.282 301.499 533.116 305.88C533.133 305.899 533.596 305.528 534.018 305.215C532.681 301.805 531.431 298.301 529.898 294.926C529.515 294.084 528.192 293.142 527.352 293.187C526.545 293.23 525.504 294.353 525.086 295.245C523.64 298.324 522.421 301.51 521.162 305.427ZM700.562 292.965C695.74 297.943 702.716 299.38 703.437 302.333C701.506 303.063 699.653 303.764 697.8 304.465C697.944 305.08 698.087 305.695 698.231 306.309C700.839 306.192 703.978 306.881 705.851 305.647C706.927 304.94 705.854 301.111 705.93 298.694C705.982 297.044 706.349 295.405 706.689 292.932C705.004 292.774 703.063 292.593 700.562 292.965ZM678.633 306.986C680.405 306.179 682.177 305.372 683.95 304.565C682.221 304.341 680.145 304.634 678.852 303.763C677.234 302.673 675.295 300.614 675.318 299C675.336 297.745 678.002 296.201 679.771 295.422C680.791 294.973 682.368 295.79 683.694 296.036C683.946 295.405 684.198 294.773 684.449 294.141C682.689 293.43 680.926 292.125 679.17 292.134C675.803 292.151 672.781 293.341 672.029 297.333C671.109 302.223 672.7 304.896 678.633 306.986ZM533 278.307C532.998 276.652 533.125 274.981 532.936 273.347C532.845 272.559 532.156 271.84 531.737 271.09C531.161 271.847 530.272 272.534 530.081 273.379C529.796 274.639 530.301 276.103 529.927 277.313C529.423 278.943 528.404 280.414 527.606 281.953C526.737 280.485 525.449 279.107 525.106 277.524C524.67 275.515 525 273.34 525 271.237C524.568 271.069 524.135 270.902 523.703 270.734C523.139 271.532 522.195 272.282 522.088 273.138C521.842 275.094 522.018 277.101 521.998 279.088C521.961 282.832 523.681 285.066 527.537 284.952C531.08 284.848 533.603 283.422 533 278.307ZM634.341 293.112C630.725 291.108 626.56 291.43 624.629 294.476C623.114 296.865 623.068 301.42 624.369 304.009C625.648 306.554 629.374 308.303 632.895 306.036C633.674 305.535 634.239 304.701 634.903 304.021C634.082 303.69 633.122 302.905 632.463 303.105C628.859 304.203 625.982 303.836 626.092 299.369C626.204 294.809 629.429 295.219 632.729 295.864C633.283 295.973 634.151 294.479 634.341 293.112ZM550.375 305.943C551.223 304.431 552.07 302.918 553.083 301.11C555.837 301.06 559.693 300.858 558.831 296.378C557.648 290.222 552.731 293.928 548.801 292.986C549.057 297.665 549.279 301.724 550.375 305.943ZM605.987 281.37C604.745 278.964 603.504 276.559 602.338 274.299C603.094 273.868 604.6 273.009 606.107 272.15C605.935 271.859 605.762 271.567 605.589 271.276C603.157 271.276 600.725 271.276 596.66 271.276C598.698 275.306 600.275 278.424 601.92 281.678C600.205 281.491 598.741 281.331 595.634 280.993C597.484 283.068 598.529 284.922 599.123 284.787C601.466 284.255 603.667 283.098 605.987 281.37ZM544.911 300.532C545.092 298.363 546.092 294.753 545.296 294.3C543.116 293.059 540.179 293.146 537.469 292.695C537.469 297.623 537.469 301.75 537.469 305.878C537.916 305.995 538.363 306.113 538.809 306.231C539.43 304.547 540.051 302.864 540.698 301.11C541.829 301.047 542.986 300.982 544.911 300.532ZM563.001 276.451C561.768 274.488 562.709 270.484 557.845 271.3C560.206 276.177 559.98 281.98 565.222 285.562C567.017 280.446 568.578 275.996 570.14 271.545C569.588 271.224 569.036 270.903 568.484 270.583C567.616 271.846 566.815 273.164 565.859 274.357C565.032 275.388 564.029 276.278 563.001 276.451ZM576.47 284.999C577.92 284.928 579.37 284.857 582.372 284.71C579.364 282.42 577.479 280.986 574.652 278.835C577.97 278.061 579.491 277.706 581.012 277.352C580.95 277.059 580.888 276.767 580.826 276.474C579.234 276.107 577.643 275.74 575.717 275.296C577.806 274.049 579.358 273.123 580.91 272.197C578.986 271.803 577.07 271.358 575.133 271.045C574.556 270.952 573.919 271.229 573.005 271.389C573.005 275.204 572.837 278.832 573.122 282.423C573.195 283.339 574.705 284.141 576.47 284.999ZM690.874 296.893C691.203 296.267 691.404 295.246 691.885 295.091C693.172 294.675 694.578 294.631 695.937 294.439C695.867 294.083 695.797 293.727 695.727 293.371C692.891 293.371 690.055 293.371 687.381 293.371C687.381 297.784 687.381 301.819 687.381 306.158C690.485 305.947 693.18 305.764 695.875 305.581C695.858 305.189 695.84 304.797 695.823 304.405C693.955 304.146 692.087 303.887 688.762 303.426C690.384 301.785 691.197 300.819 692.157 300.032C692.993 299.348 693.994 298.865 694.922 298.293C693.853 297.857 692.785 297.42 690.874 296.893ZM653.808 304.651C651.941 304.278 650.074 303.905 647.564 303.404C648.174 302.14 648.435 300.843 649.225 300.152C650.234 299.271 651.67 298.88 652.922 298.278C651.53 297.785 650.117 297.341 648.761 296.764C648.44 296.627 648.311 296.041 647.954 295.419C650.097 295.081 652.009 294.779 653.92 294.477C653.872 294.124 653.823 293.771 653.775 293.418C651.002 293.418 648.229 293.418 645.269 293.418C645.269 297.54 645.269 301.576 645.269 306.141C648.292 305.923 651.026 305.725 653.808 304.651ZM665.21 274.536C667.103 274.203 668.997 273.871 671.808 273.377C668.709 269.41 665.307 271.667 662.279 271.102C662.279 275.973 662.279 280.387 662.279 284.8C662.837 284.941 663.396 285.082 663.954 285.223C664.472 283.31 664.991 281.396 665.465 279.643C667.11 278.985 668.684 278.356 670.257 277.727C670.117 277.314 669.978 276.9 669.838 276.487C668.288 276.119 666.737 275.751 665.21 274.536ZM587.951 298.534C586.337 297.693 584.722 296.853 582.512 295.703C584.731 295.137 586.346 294.725 587.961 294.313C587.89 293.986 587.819 293.658 587.747 293.331C585.264 293.331 582.78 293.331 580.342 293.331C580.342 297.716 580.342 301.761 580.342 306.118C583.106 305.943 585.498 305.791 587.889 305.639C587.878 305.251 587.867 304.863 587.856 304.475C586.335 304.196 584.815 303.917 583.401 303.657C581.466 298.381 586.508 300.926 587.951 298.534ZM631.706 272.878C630.387 272.109 629.067 271.34 627.748 270.572C627.554 270.886 627.359 271.2 627.165 271.513C628.944 276.084 630.722 280.655 632.597 285.472C634.471 280.131 636.022 275.71 637.927 270.279C635.593 271.432 634.046 272.197 631.706 272.878ZM622 280.418C622.753 277.403 623.506 274.387 624.346 271.021C622.003 271.021 619.377 270.944 616.763 271.08C616.178 271.111 615.632 271.889 615.068 272.324C615.524 272.867 615.88 273.589 616.458 273.91C617.215 274.33 618.148 274.433 619.253 274.742C619.253 278.289 619.253 281.549 619.253 284.809C619.776 284.935 620.299 285.061 620.822 285.187C621.215 283.902 621.607 282.618 622 280.418ZM343.388 228.932C340.726 226.993 338.15 227.545 336.646 230.11C336.016 231.183 336.618 234.015 337.616 234.749C338.899 235.692 342.163 236.121 342.752 235.361C343.846 233.949 343.62 231.515 343.388 228.932ZM493.942 228.027C491.501 229.354 489.751 231.341 491.639 233.899C492.567 235.156 495.153 236.078 496.652 235.725C497.724 235.473 498.645 232.912 498.911 231.265C499.413 228.152 497.157 227.838 493.942 228.027ZM598.408 196.137C598.938 198.412 599.468 200.687 599.997 202.962C601.694 202.526 603.915 202.58 604.924 201.501C605.764 200.604 605.759 197.293 605.111 196.946C603.456 196.057 601.234 196.226 598.408 196.137ZM562.701 305.828C565.086 305.828 567.472 305.828 569.857 305.828C569.852 305.37 569.846 304.912 569.84 304.454C568.323 304.18 566.806 303.905 564.868 303.554C564.868 300.011 564.868 296.601 564.868 293.022C561.705 294.259 561.705 294.259 562.701 305.828ZM611.986 272.88C611.424 272.283 610.862 271.687 610.299 271.09C609.873 271.659 609.099 272.216 609.079 272.798C608.961 276.246 608.935 279.703 609.093 283.147C609.121 283.757 610.16 284.321 610.732 284.907C611.149 284.329 611.902 283.765 611.926 283.171C612.051 280.054 611.993 276.928 611.986 272.88ZM555 279.402C555 276.661 555 273.92 555 270.941C551.736 272.257 551.057 277.546 552.637 284.815C553.114 284.924 553.592 285.034 554.069 285.143C554.379 283.542 554.69 281.94 555 279.402ZM575.418 293.193C574.624 293.679 573.169 294.131 573.141 294.659C572.941 298.372 573.035 302.101 573.035 306.054C576.236 304.745 576.236 304.745 575.418 293.193ZM638.002 295.797C638.007 298.589 637.942 301.384 638.074 304.17C638.103 304.766 638.849 305.329 639.265 305.907C639.838 305.323 640.873 304.764 640.906 304.152C641.074 301.041 641.046 297.913 640.922 294.798C640.898 294.213 640.126 293.659 639.699 293.09C639.137 293.686 638.576 294.281 638.002 295.797Z" fill="white"/>
<path d="M128.048 181.575C136.255 203.913 144.17 225.927 152.084 247.941C152.463 247.971 152.843 248.001 153.222 248.031C155.817 240.818 158.442 233.617 160.999 226.391C166.038 212.154 170.973 197.879 176.17 183.7C176.613 182.493 178.683 181.138 180.017 181.117C192.504 180.921 204.996 181 218.025 181C212.948 195.018 207.922 208.727 203.014 222.479C193.293 249.713 183.677 276.985 173.828 304.172C173.363 305.456 171.074 306.847 169.608 306.877C158.618 307.103 147.618 306.842 136.63 307.101C133.515 307.175 132.024 305.912 131.125 303.397C122.741 279.952 114.408 256.488 106.025 233.041C100.131 216.556 94.18 200.092 88.2753 183.611C88.0616 183.014 88.0705 182.338 87.9092 181.251C101.333 181.251 114.544 181.251 128.048 181.575ZM124.95 254.649C128.218 263.882 131.411 273.142 134.785 282.336C136.584 287.238 137.424 294.227 140.998 296.293C145.256 298.754 151.98 296.95 157.636 296.98C157.931 296.982 158.226 296.852 158.818 296.715C157.872 294.434 156.848 292.244 156.04 289.977C144.671 258.063 133.355 226.129 121.897 194.246C121.425 192.933 119.745 191.222 118.537 191.148C113.118 190.812 107.665 191.001 101.877 191.001C109.532 212.329 117.008 233.159 124.95 254.649Z" fill="#231F20"/>
<path d="M236.695 204.285C235.018 196.534 233.59 189.114 232.075 181.243C258.045 181.243 282.781 181.243 308.08 181.243C299.603 204.638 291.18 227.885 282.596 251.575C260.105 242.381 244.113 227.812 236.695 204.285Z" fill="#231F20"/>
<path d="M245.101 265.59C254.378 269.19 258.921 279.403 257.892 287.024C256.668 296.095 251.477 303.765 240.429 306.247C231.041 308.357 220.146 301.982 216.947 294.883C212.975 286.066 214.19 277.067 220.842 270.039C227.19 263.333 235.905 262.273 245.101 265.59Z" fill="#231F20"/>
<path d="M531.783 205.665C539.398 204.501 543.79 207.535 544.983 214.279C546.067 220.404 542.424 226.277 536.578 227.755C535.796 227.952 534.698 228.277 534.18 227.917C530.465 225.336 526.414 227.353 522.283 226.903C522.283 216.708 522.283 206.523 522.283 196.169C524.05 196.169 525.67 196.169 527.791 196.169C527.791 199.616 527.791 203.173 527.791 207.182C529.406 206.641 530.436 206.296 531.783 205.665ZM529.455 218.959C531.422 221.026 533.743 223.074 536.141 220.117C537.317 218.666 538.002 215.695 537.291 214.165C536.638 212.763 533.66 211.452 531.971 211.726C528.395 212.307 528.234 215.328 529.455 218.959Z" fill="#1D1C1A"/>
<path d="M553.588 241.927C556.762 240.438 559.538 238.62 562.525 238.149C566.402 237.539 570.448 238 574.71 238C574.71 244.982 574.71 251.869 574.71 258.396C571.006 258.947 567.487 259.585 563.942 259.977C555.196 260.942 549.809 253.829 552.501 244.979C552.781 244.058 553.024 243.125 553.588 241.927ZM561.849 244.035C560.905 246.254 559.558 248.413 559.218 250.721C559.082 251.638 561.018 253.531 562.293 253.849C565.114 254.552 567.592 253.609 567.971 250.197C568.398 246.353 567.271 243.648 561.849 244.035Z" fill="#1D1C1A"/>
<path d="M461.54 259.989C457.063 260.31 453.178 259.909 451.02 255.886C448.512 251.214 448.423 246.181 451.248 241.778C452.437 239.925 455.326 238.444 457.61 238.166C462.166 237.61 466.838 238.001 472 238.001C472 241.564 472 244.996 472 248.427C472 251.878 472 255.329 472 258.306C468.335 258.917 465.149 259.448 461.54 259.989ZM459.032 253.542C462.776 255.17 464.956 252.619 465.709 249.931C466.125 248.447 464.309 245.484 462.707 244.559C461.453 243.835 458.209 244.59 457.217 245.805C455.327 248.119 455.101 251.105 459.032 253.542Z" fill="#1D1C1A"/>
<path d="M399.443 253.835C404.109 249.426 404.599 253.876 406.16 256.188C400.339 260.824 393.622 261.469 389.468 257.942C385.833 254.857 384.209 247.558 386.217 243.337C388.112 239.354 395.765 236.612 400.59 238.186C404.74 239.539 407.186 244.548 406.645 250.981C401.952 250.981 397.223 250.981 392.495 250.981C392.404 251.546 392.313 252.111 392.223 252.676C394.502 253.109 396.782 253.541 399.443 253.835Z" fill="#1D1C1A"/>
<path d="M565.461 225.848C555.797 230.998 547.777 224.88 546.99 218.498C546.396 213.683 547.713 209.689 551.73 206.853C555.562 204.147 559.927 204.266 563.674 206.401C567.766 208.732 568.817 212.934 567.611 218.073C563.23 218.073 558.698 218.073 553.849 218.073C557.127 222.956 557.982 222.994 564.574 218.847C565.024 221.21 569.902 222.406 565.461 225.848Z" fill="#1D1C1A"/>
<path d="M522.245 257.252C517.899 260.065 513.517 261.035 508.962 259.402C502.976 257.256 500.272 250.691 502.676 244.822C505.187 238.689 511.915 236.095 518.292 238.799C525.578 241.888 526.938 247.719 522.245 257.252ZM508.509 250.009C509.616 252.927 511.701 255.032 514.764 253.806C516.524 253.102 518.656 250.635 518.648 248.972C518.64 247.314 516.475 244.889 514.706 244.19C511.603 242.963 509.598 245.175 508.479 248.043C508.309 248.479 508.192 248.935 508.509 250.009Z" fill="#1D1C1A"/>
<path d="M360.92 238C366.942 237.568 368.317 241.699 368.866 245.75C369.437 249.967 368.993 254.322 368.993 258.799C366.53 258.799 364.463 258.799 361.999 258.799C361.999 254.982 362.297 251.316 361.847 247.744C361.676 246.385 359.787 245.243 358.681 244.001C357.459 245.166 355.36 246.211 355.181 247.519C354.693 251.096 355.013 254.783 355.013 258.712C352.694 258.712 350.625 258.712 348.275 258.712C348.275 252.038 348.275 245.288 348.275 238C352.336 238 356.414 238 360.92 238Z" fill="#1D1C1A"/>
<path d="M539.834 244.025C535.948 244.02 534.904 246.053 534.982 249.17C535.061 252.293 535 255.419 535 258.77C532.599 258.77 530.534 258.77 528.231 258.77C528.231 251.942 528.231 245.204 528.231 238.002C533.221 238.002 538.136 237.874 543.042 238.041C547.432 238.19 548.508 241.818 548.875 245.079C549.371 249.488 548.998 253.995 548.998 258.728C547.001 258.728 545.268 258.728 543.43 258.728C541.641 254.039 545.363 248.059 539.834 244.025Z" fill="#1D1C1A"/>
<path d="M630 218.063C630 221.174 630 223.807 630 226.718C628.019 226.718 626.288 226.718 623.999 226.718C623.999 223.386 624.439 219.873 623.834 216.55C623.473 214.564 621.624 211.5 620.182 211.344C617.371 211.041 615.952 213.61 615.991 216.591C616.034 219.884 616.001 223.178 616.001 226.734C613.995 226.734 612.262 226.734 610.263 226.734C610.263 220.044 610.263 213.308 610.263 206.612C613.88 206.078 617.513 205.419 621.175 205.031C626.076 204.511 629.733 207.72 629.986 212.606C630.072 214.261 630 215.924 630 218.063Z" fill="#1D1C1A"/>
<path d="M432 250.343C432 253.414 432 256.033 432 258.822C429.957 258.822 428.337 258.822 426.357 258.822C426.357 252.062 426.357 245.198 426.357 238.001C430.82 238.001 435.271 237.892 439.714 238.034C443.52 238.156 445.806 240.295 445.954 244.115C446.139 248.904 445.998 253.706 445.998 258.748C443.975 258.748 442.241 258.748 440 258.748C440 255.961 439.94 253.182 440.016 250.406C440.096 247.475 440.139 244.35 436.311 244.089C432.382 243.822 432.38 247.153 432 250.343Z" fill="#1D1C1A"/>
<path d="M383.997 240.097C383.111 242.058 382.223 243.572 381.335 245.086C380.642 245.018 379.949 244.95 379.256 244.883C380.629 249.653 382.002 254.424 383.39 259.25C375.196 260.755 374.281 259.27 373.909 244.45C372.799 244.211 371.607 243.955 370.213 243.656C370.213 242.047 370.213 240.432 370.213 238.449C371.192 238.228 372.384 237.959 373.96 237.603C373.96 235.278 373.96 232.857 373.96 230.222C376.078 230.222 377.815 230.222 379.808 230.222C379.808 232.602 379.808 234.88 379.808 236.725C381.453 237.874 382.724 238.762 383.997 240.097Z" fill="#1D1C1A"/>
<path d="M477.945 237.955C478.704 235.502 479.003 233.087 479.362 230.199C480.866 230.126 482.607 230.042 484.788 229.938C484.907 232.51 485.018 234.926 485.146 237.686C486.316 237.877 487.523 238.074 488.847 238.29C488.847 240.089 488.847 241.711 488.847 243.345C485.358 244.312 483.549 250.068 485.614 253.16C486.851 255.013 487.699 257.125 488.993 259.647C480.757 259.868 479.006 258.301 479 251.968C478.998 249.495 479 247.022 479 244.266C477.59 244.079 476.383 243.918 474.578 243.679C476.146 241.694 472.664 238.114 477.945 237.955Z" fill="#1D1C1A"/>
<path d="M592.858 196.043C593.328 206.28 593.328 216.482 593.328 226.843C591.572 226.843 589.615 226.843 587.326 226.843C587.326 216.833 587.326 206.754 587.326 196.007C588.9 196.007 590.644 196.007 592.858 196.043Z" fill="#1D1C1A"/>
<path d="M585.998 256.758C583.881 258.03 581.766 258.824 579.21 259.783C579.21 248.525 579.21 238.451 579.21 228.188C581.367 228.188 583.319 228.188 586 228.188C586 237.466 586 246.873 585.998 256.758Z" fill="#1D1C1A"/>
<path d="M578.138 215.66C578.021 219.56 578.021 223.03 578.021 226.747C575.64 226.747 573.572 226.747 571.247 226.747C571.247 219.972 571.247 213.229 571.247 206.362C575.673 205.953 580.031 205.551 584.695 205.12C584.695 207.161 584.695 209.252 584.695 210.651C582.369 212.305 580.312 213.768 578.138 215.66Z" fill="#1D1C1A"/>
<path d="M416.24 238.661C418.58 238.591 420.577 238.242 422.828 237.848C422.828 240.323 422.828 242.285 422.828 244.569C412.574 244.971 417.317 253.274 415.57 258.804C414.057 258.872 412.314 258.95 410.28 259.042C410.28 252.079 410.28 245.33 410.28 238.012C412.123 238.133 414.01 238.257 416.24 238.661Z" fill="#1D1C1A"/>
<path d="M344 246.048C344 250.508 344 254.479 344 258.722C341.684 258.722 339.618 258.722 337.27 258.722C337.27 252.033 337.27 245.292 337.27 238.274C339.327 238.274 341.394 238.274 344 238.274C344 240.674 344 243.116 344 246.048Z" fill="#1D1C1A"/>
<path d="M495.001 259C493.686 258.171 492.144 257.367 492.114 256.509C491.901 250.54 492.001 244.56 492.001 238.214C493.958 238.127 495.696 238.05 497.996 237.948C497.996 244.454 498.074 250.734 497.885 257.007C497.865 257.694 496.314 258.336 495.001 259Z" fill="#1D1C1A"/>
<path d="M604.646 226.551C602.72 226.918 601.091 226.918 599.232 226.918C599.232 219.947 599.232 213.198 599.232 206.224C601.083 206.224 602.818 206.224 604.942 206.224C604.942 212.943 604.942 219.564 604.646 226.551Z" fill="#1D1C1A"/>
<path d="M650.215 271.001C655.056 270.331 658.788 271.929 658.684 276.463C658.619 279.312 656.342 282.912 653.952 284.695C651.181 286.762 646.481 284.018 644.792 280.355C642.801 276.036 644.918 272.071 650.215 271.001ZM649.457 280.959C651.192 280.841 653.086 281.09 654.586 280.436C655.238 280.151 655.709 277.391 655.163 276.836C653.87 275.524 651.628 273.781 650.294 274.142C646.817 275.085 647.605 277.877 649.457 280.959Z" fill="#1D9CD7"/>
<path d="M537.001 281.715C537 277.965 537 274.676 537 271.388C537.427 271.043 537.853 270.699 538.28 270.354C540.266 272.123 542.251 273.891 544.569 275.956C544.721 275.035 544.695 274.1 545.048 273.342C545.439 272.503 546.177 271.825 546.763 271.077C547.173 271.829 547.913 272.571 547.938 273.335C548.06 277.115 547.993 280.901 547.993 284.684C547.557 284.97 547.12 285.255 546.684 285.541C544.734 283.162 542.784 280.782 539.994 277.377C539.994 279.918 540.139 281.307 539.94 282.646C539.821 283.443 539.162 284.159 538.746 284.912C538.165 284 537.583 283.089 537.001 281.715Z" fill="#1D9CD7"/>
<path d="M589.221 281.798C588.105 282.808 587.279 284.045 586.453 285.282C586.087 285.127 585.721 284.973 585.355 284.818C585.355 280.457 585.355 276.096 585.355 271.235C586.792 271.162 588.379 271.147 589.951 270.987C593.44 270.632 594.867 272.75 593.855 275.477C592.595 278.869 593.572 281.61 595.08 284.513C594.742 284.824 594.404 285.136 594.066 285.447C592.548 284.306 591.03 283.166 589.221 281.798Z" fill="#1D9CD7"/>
<path d="M667.109 293.147C667.747 297.33 667.956 301.423 668.17 305.646C662.867 306.513 663.224 301.439 660.675 299.335C660.049 301.749 659.472 303.97 658.896 306.191C658.347 306.047 657.798 305.903 657.249 305.759C657.249 301.671 657.249 297.583 657.249 293.495C657.59 293.126 657.931 292.757 658.272 292.388C660.251 294.136 662.231 295.884 664.14 297.571C664.894 296.23 665.787 294.644 667.109 293.147Z" fill="#1D9CD7"/>
<path d="M593.155 305.901C592.379 301.779 592.054 297.727 591.735 293.76C600.96 291.858 603.776 293.758 602.986 300.893C602.304 307.051 597.615 305.905 593.155 305.901ZM599.989 298.691C598.683 297.33 597.378 295.969 595.363 293.869C595.363 298.139 595.363 300.964 595.363 303.788C595.783 303.998 596.204 304.208 596.624 304.417C597.748 302.778 598.873 301.139 599.989 298.691Z" fill="#1D9CD7"/>
<path d="M618.127 292.608C618.68 296.998 619.115 301.141 618.996 305.267C618.98 305.857 616.236 306.899 614.842 306.771C613.394 306.639 612.054 305.339 610.667 304.55C610.855 304.113 611.043 303.676 611.23 303.239C612.957 303.096 614.683 302.954 615.786 302.862C614.557 299.874 613.327 296.88 612.096 293.886C614.008 293.376 615.92 292.866 618.127 292.608Z" fill="#1D9CD7"/>
<path d="M521.139 305.042C522.421 301.51 523.64 298.324 525.086 295.245C525.504 294.353 526.545 293.23 527.352 293.187C528.192 293.142 529.515 294.084 529.898 294.926C531.431 298.301 532.681 301.805 534.018 305.215C533.596 305.528 533.133 305.9 533.116 305.881C529.282 301.5 525.178 304.561 521.139 305.042Z" fill="#1D9CD7"/>
<path d="M700.842 292.689C703.063 292.593 705.005 292.774 706.689 292.932C706.349 295.405 705.983 297.044 705.931 298.694C705.854 301.111 706.927 304.94 705.852 305.648C703.978 306.881 700.84 306.192 698.232 306.31C698.088 305.695 697.944 305.08 697.801 304.465C699.654 303.764 701.507 303.063 703.437 302.333C702.716 299.38 695.74 297.943 700.842 292.689Z" fill="#1D9CD7"/>
<path d="M678.224 306.955C672.7 304.896 671.109 302.223 672.029 297.333C672.781 293.341 675.803 292.151 679.17 292.134C680.926 292.125 682.689 293.43 684.449 294.142C684.198 294.773 683.946 295.405 683.694 296.037C682.368 295.79 680.791 294.974 679.771 295.422C678.002 296.201 675.336 297.745 675.318 299C675.295 300.615 677.234 302.674 678.852 303.763C680.145 304.634 682.221 304.342 683.949 304.566C682.177 305.372 680.405 306.179 678.224 306.955Z" fill="#1D9CD7"/>
<path d="M533 278.756C533.603 283.422 531.079 284.848 527.537 284.952C523.681 285.066 521.961 282.832 521.998 279.087C522.018 277.101 521.841 275.094 522.087 273.138C522.195 272.282 523.139 271.532 523.703 270.734C524.135 270.902 524.568 271.069 525 271.237C525 273.34 524.67 275.515 525.106 277.524C525.449 279.107 526.737 280.484 527.606 281.953C528.404 280.414 529.423 278.943 529.927 277.312C530.301 276.103 529.796 274.639 530.081 273.379C530.272 272.534 531.16 271.847 531.737 271.09C532.155 271.84 532.844 272.559 532.936 273.347C533.125 274.981 532.997 276.652 533 278.756Z" fill="#1D9CD7"/>
<path d="M634.607 293.419C634.151 294.479 633.283 295.973 632.728 295.865C629.428 295.22 626.203 294.81 626.091 299.369C625.981 303.836 628.858 304.203 632.462 303.106C633.121 302.905 634.081 303.691 634.903 304.021C634.239 304.702 633.673 305.535 632.894 306.037C629.373 308.303 625.647 306.554 624.368 304.009C623.068 301.421 623.114 296.865 624.628 294.476C626.56 291.43 630.724 291.108 634.607 293.419Z" fill="#1D9CD7"/>
<path d="M549.938 305.863C549.279 301.724 549.057 297.665 548.801 292.986C552.73 293.927 557.648 290.222 558.831 296.378C559.692 300.858 555.836 301.06 553.082 301.11C552.069 302.918 551.222 304.43 549.938 305.863Z" fill="#1D9CD7"/>
<path d="M605.954 281.771C603.667 283.098 601.466 284.255 599.123 284.787C598.529 284.922 597.484 283.068 595.634 280.993C598.741 281.331 600.205 281.491 601.92 281.678C600.275 278.424 598.698 275.306 596.66 271.275C600.725 271.275 603.157 271.275 605.59 271.275C605.762 271.567 605.935 271.858 606.107 272.15C604.601 273.009 603.094 273.868 602.338 274.299C603.504 276.559 604.746 278.964 605.954 281.771Z" fill="#1D9CD7"/>
<path d="M544.527 300.725C542.986 300.982 541.829 301.047 540.698 301.11C540.051 302.864 539.43 304.547 538.809 306.231C538.362 306.113 537.916 305.995 537.469 305.878C537.469 301.75 537.469 297.623 537.469 292.695C540.179 293.146 543.116 293.059 545.296 294.3C546.092 294.753 545.092 298.363 544.527 300.725Z" fill="#1D9CD7"/>
<path d="M563.052 276.841C564.029 276.278 565.032 275.388 565.858 274.357C566.815 273.164 567.616 271.846 568.484 270.583C569.036 270.904 569.588 271.224 570.14 271.545C568.578 275.996 567.017 280.447 565.222 285.562C559.98 281.98 560.205 276.177 557.845 271.3C562.709 270.484 561.768 274.488 563.052 276.841Z" fill="#1D9CD7"/>
<path d="M576.013 284.997C574.705 284.141 573.195 283.339 573.122 282.423C572.837 278.831 573.006 275.204 573.006 271.389C573.92 271.228 574.556 270.952 575.133 271.045C577.07 271.358 578.986 271.803 580.91 272.197C579.358 273.123 577.806 274.049 575.717 275.296C577.643 275.74 579.235 276.107 580.826 276.474C580.888 276.766 580.95 277.059 581.012 277.351C579.491 277.706 577.97 278.061 574.652 278.835C577.479 280.986 579.364 282.42 582.372 284.709C579.37 284.857 577.92 284.928 576.013 284.997Z" fill="#1D9CD7"/>
<path d="M691.296 296.939C692.785 297.42 693.853 297.856 694.921 298.293C693.994 298.865 692.993 299.348 692.157 300.032C691.197 300.819 690.384 301.785 688.762 303.426C692.087 303.887 693.955 304.146 695.823 304.405C695.84 304.797 695.857 305.189 695.875 305.581C693.18 305.764 690.485 305.947 687.381 306.158C687.381 301.819 687.381 297.784 687.381 293.371C690.055 293.371 692.891 293.371 695.727 293.371C695.797 293.727 695.867 294.083 695.937 294.439C694.578 294.631 693.171 294.675 691.885 295.091C691.404 295.246 691.203 296.267 691.296 296.939Z" fill="#1D9CD7"/>
<path d="M653.783 305.089C651.026 305.725 648.292 305.923 645.27 306.141C645.27 301.576 645.27 297.54 645.27 293.418C648.229 293.418 651.002 293.418 653.775 293.418C653.823 293.771 653.872 294.124 653.92 294.477C652.009 294.779 650.097 295.081 647.955 295.419C648.311 296.041 648.44 296.627 648.761 296.764C650.117 297.341 651.53 297.785 652.922 298.278C651.67 298.88 650.234 299.271 649.225 300.152C648.435 300.843 648.174 302.14 647.564 303.404C650.074 303.905 651.941 304.278 653.783 305.089Z" fill="#1D9CD7"/>
<path d="M665.198 274.959C666.737 275.751 668.287 276.119 669.837 276.487C669.977 276.9 670.117 277.314 670.257 277.727C668.684 278.356 667.11 278.985 665.465 279.643C664.99 281.396 664.472 283.31 663.954 285.223C663.396 285.082 662.837 284.941 662.278 284.8C662.278 280.387 662.278 275.973 662.278 271.102C665.307 271.667 668.709 269.41 671.808 273.377C668.997 273.871 667.103 274.203 665.198 274.959Z" fill="#1D9CD7"/>
<path d="M587.893 298.953C586.508 300.926 581.467 298.381 583.401 303.657C584.815 303.917 586.336 304.196 587.856 304.475C587.867 304.863 587.878 305.251 587.89 305.639C585.498 305.791 583.106 305.943 580.343 306.119C580.343 301.762 580.343 297.717 580.343 293.331C582.78 293.331 585.264 293.331 587.748 293.331C587.819 293.659 587.89 293.986 587.962 294.314C586.347 294.725 584.731 295.137 582.513 295.703C584.723 296.854 586.337 297.694 587.893 298.953Z" fill="#1D9CD7"/>
<path d="M632.102 272.919C634.046 272.197 635.593 271.432 637.927 270.279C636.022 275.71 634.471 280.131 632.597 285.472C630.722 280.655 628.944 276.084 627.165 271.513C627.359 271.2 627.554 270.886 627.748 270.572C629.067 271.34 630.387 272.109 632.102 272.919Z" fill="#1D9CD7"/>
<path d="M622 280.876C621.607 282.618 621.214 283.903 620.822 285.187C620.299 285.061 619.776 284.935 619.253 284.81C619.253 281.549 619.253 278.289 619.253 274.742C618.148 274.434 617.215 274.331 616.458 273.911C615.88 273.59 615.523 272.868 615.068 272.324C615.632 271.89 616.178 271.111 616.763 271.081C619.377 270.945 622.003 271.022 624.346 271.022C623.506 274.388 622.753 277.403 622 280.876Z" fill="#1D9CD7"/>
<path d="M343.666 229.22C343.62 231.515 343.845 233.95 342.752 235.361C342.162 236.122 338.899 235.693 337.615 234.749C336.618 234.016 336.016 231.184 336.645 230.11C338.15 227.546 340.726 226.994 343.666 229.22Z" fill="#1D1C1A"/>
<path d="M494.358 228.015C497.157 227.838 499.413 228.152 498.911 231.265C498.645 232.912 497.724 235.473 496.652 235.725C495.153 236.078 492.566 235.156 491.639 233.899C489.751 231.341 491.501 229.354 494.358 228.015Z" fill="#1D1C1A"/>
<path d="M598.823 196.055C601.234 196.226 603.456 196.057 605.111 196.945C605.758 197.293 605.763 200.603 604.924 201.501C603.915 202.58 601.693 202.526 599.997 202.962C599.467 200.687 598.938 198.412 598.823 196.055Z" fill="#1D1C1A"/>
<path d="M562.411 305.472C561.705 294.259 561.705 294.259 564.868 293.021C564.868 296.601 564.868 300.01 564.868 303.554C566.806 303.905 568.323 304.18 569.84 304.454C569.846 304.912 569.852 305.37 569.857 305.827C567.472 305.827 565.086 305.827 562.411 305.472Z" fill="#1D9CD7"/>
<path d="M611.992 273.343C611.993 276.928 612.051 280.053 611.926 283.171C611.902 283.765 611.149 284.329 610.732 284.907C610.16 284.321 609.122 283.757 609.093 283.147C608.935 279.703 608.961 276.246 609.079 272.798C609.099 272.215 609.873 271.659 610.299 271.09C610.862 271.687 611.424 272.283 611.992 273.343Z" fill="#1D9CD7"/>
<path d="M555 279.871C554.689 281.941 554.379 283.542 554.069 285.144C553.591 285.034 553.114 284.925 552.637 284.816C551.056 277.546 551.736 272.257 555 270.941C555 273.92 555 276.661 555 279.871Z" fill="#1D9CD7"/>
<path d="M575.661 293.581C576.236 304.745 576.236 304.745 573.035 306.054C573.035 302.101 572.941 298.372 573.141 294.659C573.169 294.131 574.624 293.68 575.661 293.581Z" fill="#1D9CD7"/>
<path d="M638.008 295.337C638.576 294.282 639.137 293.686 639.699 293.091C640.126 293.659 640.899 294.214 640.922 294.798C641.046 297.913 641.074 301.041 640.906 304.152C640.873 304.765 639.838 305.323 639.265 305.907C638.849 305.329 638.103 304.767 638.074 304.17C637.942 301.385 638.007 298.589 638.008 295.337Z" fill="#1D9CD7"/>
<path d="M124.718 254.319C117.009 233.159 109.533 212.33 101.878 191.001C107.666 191.001 113.118 190.812 118.538 191.148C119.745 191.222 121.426 192.933 121.898 194.246C133.355 226.129 144.671 258.063 156.041 289.977C156.849 292.244 157.872 294.434 158.819 296.716C158.227 296.853 157.932 296.982 157.637 296.98C151.981 296.951 145.256 298.755 140.999 296.294C137.425 294.227 136.585 287.238 134.786 282.336C131.411 273.142 128.219 263.882 124.718 254.319Z" fill="white"/>
<path d="M529.246 218.657C528.234 215.328 528.395 212.307 531.971 211.726C533.66 211.452 536.638 212.763 537.291 214.165C538.002 215.695 537.317 218.666 536.141 220.117C533.742 223.074 531.422 221.026 529.246 218.657Z" fill="white"/>
<path d="M562.264 244.019C567.271 243.648 568.398 246.353 567.971 250.197C567.592 253.609 565.114 254.552 562.293 253.849C561.018 253.531 559.082 251.638 559.218 250.721C559.558 248.413 560.905 246.254 562.264 244.019Z" fill="white"/>
<path d="M458.714 253.292C455.101 251.104 455.328 248.118 457.217 245.804C458.209 244.59 461.453 243.835 462.707 244.558C464.309 245.483 466.125 248.446 465.709 249.931C464.956 252.618 462.776 255.17 458.714 253.292Z" fill="white"/>
<path d="M508.28 249.694C508.192 248.934 508.31 248.478 508.48 248.042C509.598 245.174 511.604 242.962 514.707 244.189C516.475 244.889 518.641 247.313 518.649 248.971C518.657 250.635 516.524 253.101 514.765 253.805C511.702 255.031 509.616 252.927 508.28 249.694Z" fill="white"/>
<path d="M649.191 280.672C647.605 277.877 646.817 275.085 650.294 274.142C651.629 273.78 653.871 275.524 655.163 276.836C655.709 277.39 655.238 280.151 654.586 280.435C653.086 281.089 651.192 280.841 649.191 280.672Z" fill="white"/>
<path d="M599.992 299.096C598.872 301.139 597.748 302.779 596.624 304.418C596.203 304.208 595.783 303.998 595.362 303.789C595.362 300.964 595.362 298.139 595.362 293.869C597.378 295.97 598.683 297.33 599.992 299.096Z" fill="white"/>
</g>
<defs>
<clipPath id="clip0_6188_22348">
<rect width="625" height="185" fill="white" transform="translate(84 154)"/>
</clipPath>
</defs>
</svg>
