<svg width="179" height="150" viewBox="0 0 179 150" fill="none" xmlns="http://www.w3.org/2000/svg">
<rect width="179" height="150" fill="#313030"/>
<mask id="mask0_6188_22347" style="mask-type:luminance" maskUnits="userSpaceOnUse" x="34" y="63" width="111" height="25">
<path d="M34 63H145V88H34V63Z" fill="white"/>
</mask>
<g mask="url(#mask0_6188_22347)">
<g filter="url(#filter0_d_6188_22347)">
<path opacity="0.5" d="M141.287 82.6141V63.4551H134.295L130.612 68.3811H135.511V82.6141H131.803V87.5401H145V82.6141H141.287Z" fill="white"/>
<path d="M34 63.4546H42.724C45.434 63.4546 50.257 63.4546 53.388 67.9456C55.055 70.2266 55.602 72.7956 55.602 75.4316C55.602 82.0066 52.345 87.5396 43.185 87.5396H34V63.4546ZM40.16 82.1376H43.545C48.14 82.1376 49.447 78.9466 49.447 75.5326C49.4719 73.9725 49.0649 72.4358 48.271 71.0926C47.557 70.0196 46.316 68.8766 43.575 68.8766H40.16V82.1376ZM70.477 62.9996C72.1413 62.9662 73.7956 63.2646 75.3432 63.8776C76.8909 64.4906 78.3009 65.4057 79.491 66.5696C80.6791 67.7331 81.623 69.1222 82.2673 70.6552C82.9116 72.1883 83.2433 73.8346 83.243 75.4976C83.243 82.2176 77.96 87.9996 70.476 87.9996C67.175 88.0602 63.985 86.8078 61.607 84.5176C60.4316 83.384 59.4913 82.0296 58.8399 80.5321C58.1885 79.0346 57.8389 77.4234 57.811 75.7906C57.791 74.0306 58.111 72.2846 58.753 70.6466C59.7254 68.3522 61.3596 66.3997 63.447 65.0386C65.536 63.6763 67.9832 62.9665 70.477 62.9996ZM70.573 82.5926C74.94 82.5926 77.063 78.6226 77.063 75.5126C77.063 72.4026 74.94 68.3796 70.511 68.3796C66.235 68.3796 63.925 72.0266 63.925 75.4096C63.935 79.1426 66.448 82.5916 70.587 82.5916H70.572L70.573 82.5926ZM85.761 63.4546H91.927V74.2936H91.993L99.86 63.4546H106.32L97.267 75.4666L106.842 87.5396H99.637L91.993 77.1256H91.927V87.5396H85.76V63.4546H85.761ZM108.944 63.4546H115.104V74.2936H115.17L123.053 63.4546H129.508L120.454 75.4666L130.03 87.5396H122.826L115.17 77.1256H115.104V87.5396H108.944V63.4546Z" fill="white"/>
</g>
</g>
<defs>
<filter id="filter0_d_6188_22347" x="33" y="61.9971" width="113" height="27.0049" filterUnits="userSpaceOnUse" color-interpolation-filters="sRGB">
<feFlood flood-opacity="0" result="BackgroundImageFix"/>
<feColorMatrix in="SourceAlpha" type="matrix" values="0 0 0 0 0 0 0 0 0 0 0 0 0 0 0 0 0 0 127 0" result="hardAlpha"/>
<feOffset/>
<feGaussianBlur stdDeviation="0.5"/>
<feColorMatrix type="matrix" values="0 0 0 0 0 0 0 0 0 0 0 0 0 0 0 0 0 0 0.08 0"/>
<feBlend mode="normal" in2="BackgroundImageFix" result="effect1_dropShadow_6188_22347"/>
<feBlend mode="normal" in="SourceGraphic" in2="effect1_dropShadow_6188_22347" result="shape"/>
</filter>
</defs>
</svg>
