<svg xmlns="http://www.w3.org/2000/svg" width="228.59" height="48.69" viewBox="0 0 228.59 48.69">
    <path class="cls-2" d="M148,36.59A2.39,2.39,0,1,0,150.43,39,2.39,2.39,0,0,0,148,36.59Z" fill="#80B4C0"></path>
    <path class="cls-2" d="M158.07,24.59A5.37,5.37,0,1,0,163.44,30,5.37,5.37,0,0,0,158.07,24.59Z" fill="#80B4C0"></path>
    <path class="cls-2" d="M173.44,7.17A8.81,8.81,0,1,0,182.25,16,8.8,8.8,0,0,0,173.44,7.17Z" fill="#80B4C0"></path>
    <path class="cls-1" d="M102.34,32.44l.79,2.29h1.21l-2.9-8.33H100l-2.8,8.33h1.14l.73-2.29Zm-1.61-5h0Zm0,.15L102,31.43H99.43Z"></path>
    <path class="cls-1" d="M93.85,32.44l.8,2.29h1.2L93,26.4H91.54l-2.79,8.33h1.13l.74-2.29Zm-1.61-5h0Zm0,.15,1.31,3.87H90.94Z"></path>
    <path class="cls-1" d="M138.28,30.27l-1.86-.55c-.55-.17-.93-.25-.92-.71v-.67a.83.83,0,0,1,.89-.87h3.39v-.64c0-.31-.32-.37-.72-.37h-2.59a2,2,0,0,0-1.59.61,1.89,1.89,0,0,0-.5,1.27v.81c0,1.05.59,1.37,1.75,1.65l1.92.56c.57.17.85.29.85.76v.34a1.12,1.12,0,0,1-1.15,1.26h-3.38v.64c0,.27.23.37.49.37h2.9A2,2,0,0,0,140,32.51V32C140,30.89,139.32,30.56,138.28,30.27Z"></path>
    <path class="cls-1" d="M130.25,32.35c0,.91-.41,1.47-1.3,1.48h-1.33c-.89,0-1.29-.57-1.3-1.48V26.47h-1.16V32.4a2.43,2.43,0,0,0,.69,1.88,2.57,2.57,0,0,0,1.8.59h1.24a2.51,2.51,0,0,0,1.82-.62,2.55,2.55,0,0,0,.67-1.9V26.47h-1.13Z"></path>
    <polygon class="cls-1" points="120.7 29.88 116.63 29.88 116.63 26.47 115.47 26.47 115.47 34.73 116.63 34.73 116.63 30.89 120.7 30.89 120.7 34.73 121.86 34.73 121.86 26.47 120.7 26.47 120.7 29.88"></polygon>
    <path class="cls-1" d="M110.52,31.43a1.69,1.69,0,0,0,1.84-1.8V28.3a1.75,1.75,0,0,0-.5-1.38,2.26,2.26,0,0,0-1.55-.45h-3.77v8.26h1.16v-3.3h1.39l2.24,3.3h1.39l-2.29-3.3Zm-2.82-1v-3H110c1,0,1.21.12,1.23.91v1.05c0,.84-.18,1-1.12,1Z"></path>
    <path class="cls-1" d="M101.14,10.42l-2.8,8.33h1.14l.73-2.3h3.24l.79,2.3h1.21l-2.9-8.33Zm.7,1h0Zm-1.3,4,1.25-3.87,1.31,3.87Z"></path>
    <path class="cls-1" d="M120,16.45l.79,2.3H122l-2.9-8.33H117.7l-2.8,8.33H116l.73-2.3Zm-1.61-5h0Zm-.05.15,1.31,3.87H117.1Z"></path>
    <polygon class="cls-1" points="138.97 17.74 134.69 17.74 134.69 14.9 138.07 14.9 138.07 13.88 134.69 13.88 134.69 11.49 138.97 11.49 138.97 10.49 133.53 10.49 133.53 18.75 138.97 18.75 138.97 17.74"></polygon>
    <polygon class="cls-1" points="75.98 17.74 71.7 17.74 71.7 14.9 75.08 14.9 75.08 13.88 71.7 13.88 71.7 11.49 75.98 11.49 75.98 10.49 70.54 10.49 70.54 18.75 75.98 18.75 75.98 17.74"></polygon>
    <polygon class="cls-1" points="146.2 17.21 148.24 11.81 148.33 12.72 148.91 18.75 150 18.75 149.19 10.49 147.6 10.49 145.7 15.63 143.8 10.49 142.21 10.49 141.39 18.75 142.49 18.75 143.06 12.72 143.15 11.81 145.19 17.21 146.2 17.21"></polygon>
    <path class="cls-1" d="M129.71,18.13A2.75,2.75,0,0,0,130.4,16V13.12a2.67,2.67,0,0,0-.68-2,2.65,2.65,0,0,0-1.92-.62h-3.46v8.26h3.44A2.69,2.69,0,0,0,129.71,18.13Zm-4.21-.38V11.48h2.2c1.11,0,1.52.49,1.54,1.75V16c0,1.28-.36,1.72-1.53,1.74Z"></path>
    <path class="cls-1" d="M91,14.29l-1.85-.55c-.56-.17-.94-.25-.93-.71v-.66a.84.84,0,0,1,.9-.88h3.38v-.64c0-.31-.31-.37-.71-.37h-2.6a1.91,1.91,0,0,0-1.58.62,1.82,1.82,0,0,0-.5,1.26v.81c0,1.05.58,1.37,1.74,1.66l1.92.55c.57.17.85.29.85.76v.34a1.12,1.12,0,0,1-1.14,1.26H87.07v.64c0,.27.22.37.48.37h2.9a2.28,2.28,0,0,0,1.62-.51,2.23,2.23,0,0,0,.65-1.71V16C92.73,14.92,92,14.58,91,14.29Z"></path>
    <path class="cls-1" d="M82.64,14.29l-1.85-.55c-.56-.17-.93-.25-.92-.71v-.66a.83.83,0,0,1,.89-.88h3.39v-.64c0-.31-.32-.37-.72-.37h-2.6a1.93,1.93,0,0,0-1.58.62,1.82,1.82,0,0,0-.5,1.26v.81c0,1.05.59,1.37,1.75,1.66l1.92.55c.57.17.84.29.84.76v.34a1.12,1.12,0,0,1-1.14,1.26H78.74v.64c0,.27.23.37.48.37h2.9a2.33,2.33,0,0,0,1.63-.51,2.26,2.26,0,0,0,.64-1.71V16C84.4,14.92,83.69,14.58,82.64,14.29Z"></path>
    <path class="cls-1" d="M51.87,14.29,50,13.74c-.56-.17-.94-.25-.93-.71v-.66a.83.83,0,0,1,.89-.88h3.39v-.64c0-.31-.32-.37-.71-.37h-2.6a2,2,0,0,0-1.59.62A1.86,1.86,0,0,0,48,12.36v.81c0,1.05.58,1.37,1.74,1.66l1.92.55c.57.17.85.29.85.76v.34a1.12,1.12,0,0,1-1.15,1.26H48v.64c0,.27.22.37.48.37h2.9A2.28,2.28,0,0,0,53,18.24a2.26,2.26,0,0,0,.65-1.71V16C53.63,14.92,52.91,14.58,51.87,14.29Z"></path>
    <path class="cls-1" d="M108.46,12.76a1.12,1.12,0,0,1,1.14-1.25H113v-.64c0-.27-.23-.37-.48-.37h-2.9A2.33,2.33,0,0,0,108,11a2.25,2.25,0,0,0-.64,1.71v3.81a2.26,2.26,0,0,0,.64,1.71,2.33,2.33,0,0,0,1.63.51h2.9c.25,0,.48-.1.48-.37v-.64H109.6a1.12,1.12,0,0,1-1.14-1.26Z"></path>
    <path class="cls-1" d="M44,16.37c0,.91-.41,1.46-1.3,1.48H41.34c-.88,0-1.28-.57-1.29-1.48V10.49H38.89v5.93a2.46,2.46,0,0,0,.69,1.88,2.56,2.56,0,0,0,1.8.59h1.24a2.51,2.51,0,0,0,1.82-.62,2.55,2.55,0,0,0,.66-1.9V10.49H44Z"></path>
    <polygon class="cls-1" points="157.07 10.47 155 14.08 152.94 10.47 151.66 10.47 154.36 15.12 154.36 18.75 155.53 18.75 155.53 15.12 158.28 10.47 157.07 10.47"></polygon>
    <path class="cls-1" d="M35,14.48a1.37,1.37,0,0,0,.64-.51,2.29,2.29,0,0,0,.25-1.19v-.62A1.73,1.73,0,0,0,35.5,11a1.76,1.76,0,0,0-1.35-.55h-4v8.28H34a2.21,2.21,0,0,0,1.43-.43A1.85,1.85,0,0,0,36,16.8v-.86A1.42,1.42,0,0,0,35,14.48Zm-3.7-3h2.53a1,1,0,0,1,.76.24,1,1,0,0,1,.21.72V13a1.15,1.15,0,0,1-.24.84,1,1,0,0,1-.7.22H31.33ZM34.9,16.7a1.2,1.2,0,0,1-.22.85,1,1,0,0,1-.72.21H31.33V15.05h2.56a1.09,1.09,0,0,1,.77.21,1,1,0,0,1,.24.78Z"></path>
    <polygon class="cls-1" points="65.97 16.74 62.21 10.47 61.03 10.47 61.03 18.75 62.05 18.75 62.05 12.28 65.97 18.75 66.99 18.75 66.99 10.47 65.97 10.47 65.97 16.74"></polygon>
    <rect class="cls-1" x="56.67" y="10.47" width="1.16" height="8.27"></rect>
</svg>