<svg width="2376" height="514" viewBox="0 0 2376 514" fill="none" xmlns="http://www.w3.org/2000/svg">
<g clip-path="url(#clip0_6187_21298)">
<path d="M182 1C210.021 1 238.041 1 266.531 1.46866C267 172.958 267 343.979 267 515C241.979 515 216.958 515 191.468 514.605C190.331 512.246 189.719 510.261 188.984 508.324C182.05 490.057 175.075 471.807 168.152 453.536C159.413 430.473 150.71 407.396 141.993 384.324C134.125 363.498 126.283 342.662 118.386 321.847C108.616 296.094 98.8074 270.355 88.9916 244.619C88.0297 242.096 86.9016 239.637 85.8507 237.149C85.567 237.271 85.2833 237.392 84.9997 237.513C84.9997 330.009 84.9997 422.504 84.9997 515C57.0179 515 29.0361 515 1.05469 515C1.05505 343.667 1.05505 172.333 1.05505 1C25.7611 1 50.4117 1 75.5339 1.39177C79.2534 10.2981 82.4476 18.8335 85.7593 27.3232C95.474 52.2275 105.331 77.0768 114.953 102.017C125.206 128.594 135.205 155.27 145.408 181.867C155.554 208.312 165.787 234.723 176.065 261.116C177.302 264.293 179.062 267.266 180.579 270.333C181.052 270.128 181.526 269.923 182 269.718C182 180.145 182 90.5726 182 1Z" fill="black"/>
<path d="M797 515C767.979 515 738.958 515 709.466 514.616C705.997 506.817 703.022 499.392 699.994 491.989C691.683 471.672 683.291 451.388 675.039 431.048C666.309 409.527 657.688 387.961 649.047 366.404C639.334 342.171 629.676 317.917 619.927 293.699C618.568 290.322 616.823 287.101 615.257 283.808C614.838 283.945 614.419 284.082 614 284.219C614 361.146 614 438.073 614 515C585.979 515 557.958 515 529.469 514.531C529 343.042 529 172.021 529 1C601.354 1 673.708 1 746.663 1.38196C756.501 2.9689 764.783 6.5007 771.408 13.0205C781.365 22.8197 784.823 35.676 784.83 48.9143C784.869 114.479 784.437 180.046 783.899 245.609C783.808 256.587 779.362 266.355 771.933 274.497C762.734 284.579 750.591 288.271 737.502 288.897C726.864 289.405 716.183 289 705.543 289C705.543 289.41 705.446 289.758 705.557 290.02C711.638 304.492 717.709 318.969 723.841 333.419C734.417 358.343 745.065 383.237 755.62 408.169C767.55 436.345 779.436 464.539 791.285 492.749C794.275 499.87 798.407 506.734 797 515ZM699 123.5C699 107.404 699 91.3083 699 75.2883C670.355 75.2883 642.285 75.2883 614.287 75.2883C614.287 124.979 614.287 174.38 614.287 223.712C642.645 223.712 670.715 223.712 699 223.712C699 190.449 699 157.475 699 123.5Z" fill="black"/>
<path d="M1852 1C1911.02 1 1970.04 1 2029.68 1.39145C2033.02 2.1886 2035.77 2.5175 2038.48 3.01259C2054.3 5.89541 2068.73 12.1022 2080.93 22.5456C2103.62 41.9695 2113.7 67.6884 2113.82 96.7832C2114.28 199.387 2114.02 301.994 2113.96 404.6C2113.95 412.513 2113.36 420.427 2112.99 428.338C2112.33 442.593 2108.21 455.809 2101.32 468.286C2088.95 490.685 2070.07 504.48 2045.59 510.971C2039.78 512.513 2033.87 513.667 2028 515C1969.65 515 1911.29 515 1852.47 514.531C1852 343.042 1852 172.021 1852 1ZM1938 414.5C1938 423.263 1938 432.026 1938 440.669C1938.88 440.853 1939.19 440.975 1939.5 440.976C1954 440.99 1968.5 441.189 1982.99 440.908C1989.15 440.789 1995.42 440.225 2001.42 438.886C2017.72 435.25 2026.76 423.033 2026.81 408.158C2027.17 307.695 2027.1 207.229 2026.83 106.765C2026.8 97.6599 2022.94 89.5164 2015.14 83.4254C2007.4 77.3893 1998.64 75.309 1989.37 75.0978C1973.72 74.7413 1958.05 74.9939 1942.39 75.0103C1940.97 75.0118 1939.54 75.1576 1938 75.2427C1938 188.268 1938 300.884 1938 414.5Z" fill="black"/>
<path d="M528.531 1C529 172.021 529 343.042 529 514.531C441.979 515 354.958 515 267.469 515C267 343.979 267 172.958 267 1.46866C291.021 1 315.042 1 339.424 1.36148C334.146 4.69017 327.788 6.80376 323.025 10.8121C314.549 17.9451 311.124 28.128 311.081 38.994C310.893 86.2945 310.972 133.596 311.044 180.897C311.051 185.635 311.066 190.512 312.128 195.08C314.281 204.343 318.239 212.572 326.594 218.3C335.189 224.193 344.917 225.701 354.703 225.852C382.178 226.276 409.664 226.119 437.144 225.908C443.298 225.861 449.57 225.227 455.568 223.884C474.404 219.666 483.585 204.949 483.78 188.561C484.383 138.103 484.229 87.6309 483.833 37.1683C483.739 25.0977 478.888 14.3255 468.028 7.67248C463.394 4.83434 458.031 3.18794 453 1C478.021 1 503.042 1 528.531 1Z" fill="white"/>
<path d="M1380 515C1351.65 515 1323.29 515 1294.47 514.531C1294 439.173 1294 364.284 1294 289.352C1263.1 289.352 1232.59 289.352 1202 289.352C1202 364.803 1202 439.902 1202 515C1173.65 515 1145.29 515 1116.47 514.531C1116 343.042 1116 172.021 1116 1C1144.35 1 1172.71 1 1201.53 1.46866C1202 70.494 1202 139.051 1202 207.649C1232.9 207.649 1263.41 207.649 1294 207.649C1294 138.531 1294 69.7657 1294 1C1322.35 1 1350.71 1 1379.53 1.46866C1380 172.958 1380 343.979 1380 515Z" fill="black"/>
<path d="M1639 515C1580.64 515 1522.29 515 1463.34 514.618C1453.5 513.03 1445.33 509.39 1438.56 503.003C1427.81 492.848 1424.31 479.479 1424.15 465.494C1423.72 427.672 1424 389.842 1424.01 352.015C1424.01 350.744 1424.16 349.473 1424.23 348.283C1452.97 348.283 1481.37 348.283 1510.17 348.283C1510.17 379.301 1510.17 410.038 1510.17 440.719C1537.63 440.719 1564.7 440.719 1592 440.719C1592 410.8 1592.01 381.162 1591.95 351.525C1591.95 350.492 1591.58 349.136 1590.87 348.479C1583.64 341.756 1576.21 335.238 1569.01 328.484C1556.21 316.491 1543.49 304.416 1530.82 292.295C1520.27 282.204 1509.85 271.975 1499.33 261.852C1492.77 255.54 1486.18 249.258 1479.52 243.057C1466.24 230.693 1452.72 218.574 1439.63 206.01C1429.21 196.007 1424.14 183.159 1424.13 168.964C1424.1 126.223 1424.28 83.473 1425.24 40.7459C1425.52 28.057 1431.5 16.875 1442.77 9.85215C1448.47 6.29967 1454.9 3.9135 1461 1C1520.35 1 1579.71 1 1639.66 1.37862C1652.14 3.70501 1661.66 9.32141 1668.82 19.2141C1675.48 28.4299 1677.78 38.9431 1677.88 49.8037C1678.2 84.4635 1678 119.128 1678 153.791C1678 155.409 1678 157.026 1678 158.784C1649.17 158.784 1620.76 158.784 1591.96 158.784C1591.96 130.833 1591.96 103.094 1591.96 75.2181C1564.5 75.2181 1537.43 75.2181 1510 75.2181C1510 102.557 1509.99 129.68 1510.05 156.803C1510.05 157.556 1510.66 158.478 1511.25 159.035C1523.75 170.821 1536.29 182.557 1548.82 194.319C1560.02 204.844 1571.21 215.39 1582.41 225.922C1593.61 236.454 1604.86 246.929 1616.01 257.52C1631.26 272.012 1646.39 286.63 1661.64 301.117C1672.92 311.826 1677.91 325.316 1677.89 340.411C1677.85 385.322 1677.64 430.239 1676.8 475.141C1676.57 487.793 1670.48 498.79 1659.71 505.82C1653.46 509.892 1645.94 512.005 1639 515Z" fill="black"/>
<path d="M2158 1C2230.89 1 2303.78 1 2377 1C2377 26.3533 2377 51.708 2376.53 77.5313C2332.13 78 2288.19 78 2244.27 78C2244.27 123.271 2244.27 168.009 2244.27 213.147C2281.94 213.147 2319.35 213.147 2356.72 213.147C2356.72 238.62 2356.72 263.692 2356.72 289.163C2319.04 289.163 2281.63 289.163 2244.29 289.163C2244.29 338.969 2244.29 388.373 2244.29 438C2288.71 438 2332.86 438 2377 438C2377 463.629 2377 489.257 2377 515C2304.31 515 2231.62 515 2158.47 514.531C2158 343.042 2158 172.021 2158 1Z" fill="black"/>
<path d="M797.469 515C798.407 506.734 794.275 499.87 791.285 492.749C779.436 464.539 767.55 436.345 755.621 408.169C745.065 383.237 734.417 358.343 723.841 333.419C717.71 318.969 711.638 304.492 705.557 290.02C705.447 289.758 705.543 289.41 705.543 289C716.183 289 726.865 289.405 737.502 288.897C750.591 288.271 762.734 284.579 771.933 274.497C779.362 266.355 783.809 256.587 783.899 245.609C784.437 180.046 784.869 114.479 784.831 48.9143C784.823 35.676 781.365 22.8197 771.408 13.0205C764.783 6.50067 756.501 2.96887 747.132 1.38193C772.688 0.999971 798.375 0.999971 824.532 1.46863C825 27.192 825 52.4468 825 78.0771C852.548 78.0771 879.608 78.0771 907 78.0771C907 223.97 907 369.485 907 515C870.646 515 834.292 515 797.469 515Z" fill="white"/>
<path d="M907.469 515C907 369.485 907 223.97 907 78.0772C879.607 78.0772 852.548 78.0772 825 78.0772C825 52.4468 825 27.1921 825 1.46868C908.354 1.00002 991.708 1.00002 1075.53 1.46868C1076 27.1921 1076 52.4468 1076 78.0769C1048.12 78.0769 1020.73 78.0769 993 78.0769C993 223.97 993 369.485 993 515C964.646 515 936.292 515 907.469 515Z" fill="black"/>
<path d="M993.469 515C993 369.485 993 223.97 993 78.0769C1020.73 78.0769 1048.12 78.0769 1076 78.0769C1076 52.4468 1076 27.1921 1076 1.46866C1089.02 1 1102.04 1 1115.53 1C1116 172.021 1116 343.042 1116 514.531C1075.31 515 1034.62 515 993.469 515Z" fill="white"/>
<path d="M1460.53 1C1454.9 3.9135 1448.47 6.29967 1442.77 9.85215C1431.5 16.875 1425.52 28.057 1425.24 40.7459C1424.28 83.473 1424.1 126.223 1424.13 168.964C1424.14 183.159 1429.21 196.007 1439.63 206.01C1452.72 218.574 1466.24 230.693 1479.52 243.057C1486.18 249.258 1492.77 255.54 1499.33 261.852C1509.85 271.975 1520.27 282.204 1530.82 292.295C1543.49 304.416 1556.21 316.491 1569.01 328.484C1576.21 335.238 1583.64 341.756 1590.87 348.479C1591.58 349.136 1591.95 350.492 1591.95 351.525C1592.01 381.162 1592 410.8 1592 440.719C1564.7 440.719 1537.63 440.719 1510.17 440.719C1510.17 410.038 1510.17 379.301 1510.17 348.283C1481.37 348.283 1452.97 348.283 1424.23 348.283C1424.16 349.473 1424.01 350.744 1424.01 352.015C1424 389.842 1423.72 427.672 1424.15 465.494C1424.31 479.479 1427.81 492.848 1438.57 503.003C1445.33 509.39 1453.5 513.03 1462.87 514.618C1435.65 515 1408.29 515 1380.47 515C1380 343.979 1380 172.958 1380 1.46866C1406.69 1 1433.38 1 1460.53 1Z" fill="white"/>
<path d="M1722 1C1750.35 1 1778.71 1 1807.53 1.46866C1808 172.958 1808 343.979 1808 515C1779.65 515 1751.29 515 1722.47 514.531C1722 343.042 1722 172.021 1722 1Z" fill="black"/>
<path d="M1721.53 1C1722 172.021 1722 343.042 1722 514.531C1694.65 515 1667.29 515 1639.47 515C1645.95 512.005 1653.47 509.892 1659.71 505.82C1670.48 498.79 1676.57 487.793 1676.8 475.141C1677.64 430.239 1677.86 385.322 1677.89 340.411C1677.91 325.316 1672.92 311.826 1661.64 301.117C1646.39 286.63 1631.26 272.012 1616.01 257.52C1604.87 246.929 1593.61 236.454 1582.41 225.922C1571.21 215.39 1560.03 204.844 1548.82 194.319C1536.3 182.557 1523.75 170.821 1511.25 159.035C1510.66 158.478 1510.05 157.556 1510.05 156.803C1509.99 129.68 1510 102.557 1510 75.2181C1537.43 75.2181 1564.5 75.2181 1591.96 75.2181C1591.96 103.094 1591.96 130.833 1591.96 158.784C1620.76 158.784 1649.17 158.784 1678 158.784C1678 157.026 1678 155.409 1678 153.791C1678 119.128 1678.2 84.4635 1677.88 49.8037C1677.78 38.9431 1675.48 28.4299 1668.82 19.2141C1661.66 9.3214 1652.14 3.70501 1640.13 1.37862C1667.02 1 1694.04 1 1721.53 1Z" fill="white"/>
<path d="M2377 437.531C2332.86 438 2288.71 438 2244.28 438C2244.28 388.373 2244.28 338.969 2244.28 289.163C2281.63 289.163 2319.04 289.163 2356.72 289.163C2356.72 263.692 2356.72 238.62 2356.72 213.147C2319.35 213.147 2281.94 213.147 2244.27 213.147C2244.27 168.009 2244.27 123.271 2244.27 78C2288.19 78 2332.13 78 2376.53 78C2377 197.688 2377 317.375 2377 437.531Z" fill="white"/>
<path d="M452.532 1C458.032 3.18794 463.395 4.83434 468.028 7.67248C478.889 14.3255 483.739 25.0977 483.834 37.1683C484.23 87.6309 484.383 138.103 483.781 188.561C483.586 204.949 474.405 219.666 455.569 223.884C449.57 225.227 443.298 225.861 437.144 225.908C409.665 226.119 382.178 226.276 354.703 225.852C344.918 225.701 335.19 224.193 326.595 218.3C318.24 212.572 314.282 204.343 312.128 195.08C311.067 190.512 311.052 185.635 311.045 180.897C310.972 133.596 310.893 86.2945 311.082 38.994C311.125 28.128 314.55 17.9451 323.026 10.8121C327.789 6.80376 334.147 4.69017 339.893 1.36148C377.355 1 414.709 1 452.532 1ZM371.001 91.5C371.001 116.927 371.001 142.354 371.001 167.714C388.643 167.714 405.713 167.714 422.716 167.714C422.716 131.025 422.716 94.6237 422.716 58.2863C405.359 58.2863 388.288 58.2863 371.001 58.2863C371.001 69.2141 371.001 79.8571 371.001 91.5Z" fill="black"/>
<path d="M2157.53 1C2158 172.021 2158 343.042 2158 514.531C2114.98 515 2071.96 515 2028.47 515C2033.87 513.667 2039.78 512.513 2045.59 510.971C2070.07 504.48 2088.95 490.685 2101.32 468.286C2108.21 455.809 2112.33 442.593 2112.99 428.338C2113.36 420.427 2113.95 412.513 2113.96 404.6C2114.02 301.994 2114.28 199.387 2113.82 96.7832C2113.7 67.6884 2103.62 41.9695 2080.93 22.5456C2068.73 12.1022 2054.3 5.89541 2038.48 3.01259C2035.77 2.5175 2033.02 2.1886 2030.14 1.39145C2072.35 1 2114.71 1 2157.53 1Z" fill="white"/>
<path d="M1808.47 515C1808 343.979 1808 172.958 1808 1.46866C1822.35 1 1836.71 1 1851.53 1C1852 172.021 1852 343.042 1852 514.531C1837.65 515 1823.29 515 1808.47 515Z" fill="white"/>
<path d="M1202.47 515C1202 439.902 1202 364.803 1202 289.353C1232.59 289.353 1263.1 289.353 1294 289.353C1294 364.284 1294 439.173 1294 514.531C1263.65 515 1233.29 515 1202.47 515Z" fill="white"/>
<path d="M1293.53 1C1294 69.7657 1294 138.531 1294 207.649C1263.41 207.649 1232.9 207.649 1202 207.649C1202 139.051 1202 70.494 1202 1.46866C1232.35 1 1262.71 1 1293.53 1Z" fill="white"/>
<path d="M85.4687 515C85 422.505 85 330.009 85 237.514C85.2837 237.392 85.5673 237.271 85.851 237.149C86.9019 239.638 88.03 242.097 88.992 244.619C98.8077 270.355 108.616 296.094 118.387 321.848C126.284 342.662 134.125 363.498 141.993 384.324C150.71 407.396 159.413 430.473 168.152 453.536C175.075 471.807 182.051 490.058 188.984 508.324C189.72 510.262 190.331 512.247 191 514.605C155.979 515 120.958 515 85.4687 515Z" fill="white"/>
<path d="M181.53 1C181.999 90.5726 181.999 180.145 181.999 269.718C181.525 269.923 181.052 270.128 180.578 270.333C179.061 267.266 177.301 264.293 176.064 261.116C165.786 234.723 155.553 208.312 145.408 181.867C135.204 155.27 125.206 128.594 114.952 102.017C105.33 77.0768 95.4733 52.2275 85.7586 27.3232C82.447 18.8335 79.2527 10.2981 76.002 1.39177C111.02 1 146.041 1 181.53 1Z" fill="white"/>
<path d="M614.469 515C614 438.073 614 361.146 614 284.219C614.419 284.082 614.838 283.945 615.257 283.808C616.823 287.101 618.568 290.322 619.927 293.699C629.676 317.916 639.334 342.171 649.047 366.403C657.688 387.961 666.309 409.526 675.039 431.047C683.291 451.388 691.683 471.672 699.994 491.989C703.022 499.392 705.997 506.817 708.998 514.616C677.646 515 646.292 515 614.469 515Z" fill="white"/>
<path d="M699 124C699 157.474 699 190.449 699 223.711C670.715 223.711 642.645 223.711 614.287 223.711C614.287 174.38 614.287 124.979 614.287 75.2881C642.285 75.2881 670.355 75.2881 699 75.2881C699 91.308 699 107.404 699 124Z" fill="white"/>
<path d="M1938 414C1938 300.884 1938 188.268 1938 75.2427C1939.54 75.1576 1940.97 75.0118 1942.39 75.0103C1958.05 74.9939 1973.72 74.7413 1989.37 75.0978C1998.64 75.309 2007.4 77.3893 2015.14 83.4254C2022.94 89.5164 2026.8 97.6599 2026.83 106.765C2027.1 207.229 2027.17 307.695 2026.81 408.158C2026.76 423.033 2017.72 435.25 2001.42 438.886C1995.42 440.225 1989.15 440.789 1982.99 440.908C1968.5 441.189 1954 440.99 1939.5 440.976C1939.19 440.975 1938.88 440.853 1938 440.669C1938 432.026 1938 423.263 1938 414Z" fill="white"/>
<path d="M371 90.9998C371 79.8569 371 69.214 371 58.2861C388.288 58.2861 405.358 58.2861 422.715 58.2861C422.715 94.6235 422.715 131.025 422.715 167.713C405.712 167.713 388.642 167.713 371 167.713C371 142.353 371 116.927 371 90.9998Z" fill="white"/>
</g>
<defs>
<clipPath id="clip0_6187_21298">
<rect width="2376" height="514" fill="white"/>
</clipPath>
</defs>
</svg>
