<svg width="2679" height="2679" viewBox="0 0 2679 2679" fill="none" xmlns="http://www.w3.org/2000/svg">
<rect width="2679" height="2679" fill="white"/>
<g clip-path="url(#clip0_6289_4878)">
<mask id="mask0_6289_4878" style="mask-type:luminance" maskUnits="userSpaceOnUse" x="152" y="927" width="2376" height="514">
<path d="M2528 927H152V1441H2528V927Z" fill="white"/>
</mask>
<g mask="url(#mask0_6289_4878)">
<path d="M334 928C362.021 928 390.041 928 418.531 928.469C419 1099.96 419 1270.98 419 1442C393.979 1442 368.958 1442 343.468 1441.6C342.331 1439.25 341.719 1437.26 340.984 1435.32C334.05 1417.06 327.075 1398.81 320.152 1380.54C311.413 1357.47 302.71 1334.4 293.993 1311.32C286.125 1290.5 278.283 1269.66 270.386 1248.85C260.616 1223.09 250.807 1197.36 240.992 1171.62C240.03 1169.1 238.902 1166.64 237.851 1164.15C237.567 1164.27 237.283 1164.39 237 1164.51C237 1257.01 237 1349.5 237 1442C209.018 1442 181.036 1442 153.055 1442C153.055 1270.67 153.055 1099.33 153.055 928C177.761 928 202.412 928 227.534 928.392C231.253 937.298 234.448 945.833 237.759 954.323C247.474 979.228 257.331 1004.08 266.953 1029.02C277.206 1055.59 287.205 1082.27 297.408 1108.87C307.554 1135.31 317.787 1161.72 328.065 1188.12C329.302 1191.29 331.062 1194.27 332.579 1197.33C333.052 1197.13 333.526 1196.92 334 1196.72C334 1107.14 334 1017.57 334 928Z" fill="black"/>
<path d="M949 1442C919.979 1442 890.958 1442 861.466 1441.62C857.997 1433.82 855.022 1426.39 851.994 1418.99C843.683 1398.67 835.291 1378.39 827.039 1358.05C818.309 1336.53 809.688 1314.96 801.047 1293.4C791.334 1269.17 781.676 1244.92 771.927 1220.7C770.568 1217.32 768.823 1214.1 767.257 1210.81C766.838 1210.95 766.419 1211.08 766 1211.22C766 1288.15 766 1365.07 766 1442C737.979 1442 709.958 1442 681.469 1441.53C681 1270.04 681 1099.02 681 928C753.354 928 825.708 928 898.663 928.382C908.501 929.969 916.783 933.501 923.408 940.021C933.365 949.82 936.823 962.676 936.83 975.914C936.869 1041.48 936.437 1107.05 935.899 1172.61C935.808 1183.59 931.362 1193.36 923.933 1201.5C914.734 1211.58 902.591 1215.27 889.502 1215.9C878.864 1216.41 868.183 1216 857.543 1216C857.543 1216.41 857.446 1216.76 857.557 1217.02C863.638 1231.49 869.709 1245.97 875.841 1260.42C886.417 1285.34 897.065 1310.24 907.62 1335.17C919.55 1363.35 931.436 1391.54 943.285 1419.75C946.275 1426.87 950.407 1433.73 949 1442ZM851 1050.5C851 1034.4 851 1018.31 851 1002.29C822.355 1002.29 794.285 1002.29 766.287 1002.29C766.287 1051.98 766.287 1101.38 766.287 1150.71C794.645 1150.71 822.715 1150.71 851 1150.71C851 1117.45 851 1084.47 851 1050.5Z" fill="black"/>
<path d="M2004 928C2063.02 928 2122.04 928 2181.68 928.391C2185.02 929.189 2187.77 929.517 2190.48 930.013C2206.3 932.895 2220.73 939.102 2232.93 949.546C2255.62 968.97 2265.7 994.688 2265.82 1023.78C2266.28 1126.39 2266.02 1228.99 2265.96 1331.6C2265.95 1339.51 2265.36 1347.43 2264.99 1355.34C2264.33 1369.59 2260.21 1382.81 2253.32 1395.29C2240.95 1417.69 2222.07 1431.48 2197.59 1437.97C2191.78 1439.51 2185.87 1440.67 2180 1442C2121.65 1442 2063.29 1442 2004.47 1441.53C2004 1270.04 2004 1099.02 2004 928ZM2090 1341.5C2090 1350.26 2090 1359.03 2090 1367.67C2090.88 1367.85 2091.19 1367.98 2091.5 1367.98C2106 1367.99 2120.5 1368.19 2134.99 1367.91C2141.15 1367.79 2147.42 1367.22 2153.42 1365.89C2169.72 1362.25 2178.76 1350.03 2178.81 1335.16C2179.17 1234.69 2179.1 1134.23 2178.83 1033.76C2178.8 1024.66 2174.94 1016.52 2167.14 1010.43C2159.4 1004.39 2150.64 1002.31 2141.37 1002.1C2125.72 1001.74 2110.05 1001.99 2094.39 1002.01C2092.97 1002.01 2091.54 1002.16 2090 1002.24C2090 1115.27 2090 1227.88 2090 1341.5Z" fill="black"/>
<path d="M680.531 928C681 1099.02 681 1270.04 681 1441.53C593.979 1442 506.958 1442 419.469 1442C419 1270.98 419 1099.96 419 928.469C443.021 928 467.042 928 491.424 928.361C486.146 931.69 479.788 933.804 475.025 937.812C466.549 944.945 463.124 955.128 463.081 965.994C462.893 1013.29 462.972 1060.6 463.044 1107.9C463.051 1112.64 463.066 1117.51 464.128 1122.08C466.281 1131.34 470.239 1139.57 478.594 1145.3C487.189 1151.19 496.917 1152.7 506.703 1152.85C534.178 1153.28 561.664 1153.12 589.144 1152.91C595.298 1152.86 601.57 1152.23 607.568 1150.88C626.404 1146.67 635.585 1131.95 635.78 1115.56C636.383 1065.1 636.229 1014.63 635.833 964.168C635.739 952.098 630.888 941.326 620.028 934.672C615.394 931.834 610.031 930.188 605 928C630.021 928 655.042 928 680.531 928Z" fill="white"/>
<path d="M1532 1442C1503.65 1442 1475.29 1442 1446.47 1441.53C1446 1366.17 1446 1291.28 1446 1216.35C1415.1 1216.35 1384.59 1216.35 1354 1216.35C1354 1291.8 1354 1366.9 1354 1442C1325.65 1442 1297.29 1442 1268.47 1441.53C1268 1270.04 1268 1099.02 1268 928C1296.35 928 1324.71 928 1353.53 928.469C1354 997.494 1354 1066.05 1354 1134.65C1384.9 1134.65 1415.41 1134.65 1446 1134.65C1446 1065.53 1446 996.766 1446 928C1474.35 928 1502.71 928 1531.53 928.469C1532 1099.96 1532 1270.98 1532 1442Z" fill="black"/>
<path d="M1791 1442C1732.64 1442 1674.29 1442 1615.34 1441.62C1605.5 1440.03 1597.33 1436.39 1590.56 1430C1579.81 1419.85 1576.31 1406.48 1576.15 1392.49C1575.72 1354.67 1576 1316.84 1576.01 1279.02C1576.01 1277.74 1576.16 1276.47 1576.23 1275.28C1604.97 1275.28 1633.37 1275.28 1662.17 1275.28C1662.17 1306.3 1662.17 1337.04 1662.17 1367.72C1689.63 1367.72 1716.7 1367.72 1744 1367.72C1744 1337.8 1744.01 1308.16 1743.95 1278.52C1743.95 1277.49 1743.58 1276.14 1742.87 1275.48C1735.64 1268.76 1728.21 1262.24 1721.01 1255.48C1708.21 1243.49 1695.49 1231.42 1682.82 1219.3C1672.27 1209.2 1661.85 1198.97 1651.33 1188.85C1644.77 1182.54 1638.18 1176.26 1631.52 1170.06C1618.24 1157.69 1604.72 1145.57 1591.63 1133.01C1581.21 1123.01 1576.14 1110.16 1576.13 1095.96C1576.1 1053.22 1576.28 1010.47 1577.24 967.746C1577.52 955.057 1583.5 943.875 1594.77 936.852C1600.47 933.3 1606.9 930.914 1613 928C1672.35 928 1731.71 928 1791.66 928.379C1804.14 930.705 1813.66 936.321 1820.82 946.214C1827.48 955.43 1829.78 965.943 1829.88 976.804C1830.2 1011.46 1830 1046.13 1830 1080.79C1830 1082.41 1830 1084.03 1830 1085.78C1801.17 1085.78 1772.76 1085.78 1743.96 1085.78C1743.96 1057.83 1743.96 1030.09 1743.96 1002.22C1716.5 1002.22 1689.43 1002.22 1662 1002.22C1662 1029.56 1661.99 1056.68 1662.05 1083.8C1662.05 1084.56 1662.66 1085.48 1663.25 1086.04C1675.75 1097.82 1688.29 1109.56 1700.82 1121.32C1712.02 1131.84 1723.21 1142.39 1734.41 1152.92C1745.61 1163.45 1756.86 1173.93 1768.01 1184.52C1783.26 1199.01 1798.39 1213.63 1813.64 1228.12C1824.92 1238.83 1829.91 1252.32 1829.89 1267.41C1829.85 1312.32 1829.64 1357.24 1828.8 1402.14C1828.57 1414.79 1822.48 1425.79 1811.71 1432.82C1805.46 1436.89 1797.94 1439.01 1791 1442Z" fill="black"/>
<path d="M2310 928C2382.89 928 2455.78 928 2529 928C2529 953.353 2529 978.708 2528.53 1004.53C2484.13 1005 2440.19 1005 2396.27 1005C2396.27 1050.27 2396.27 1095.01 2396.27 1140.15C2433.94 1140.15 2471.35 1140.15 2508.72 1140.15C2508.72 1165.62 2508.72 1190.69 2508.72 1216.16C2471.04 1216.16 2433.63 1216.16 2396.29 1216.16C2396.29 1265.97 2396.29 1315.37 2396.29 1365C2440.71 1365 2484.86 1365 2529 1365C2529 1390.63 2529 1416.26 2529 1442C2456.31 1442 2383.62 1442 2310.47 1441.53C2310 1270.04 2310 1099.02 2310 928Z" fill="black"/>
<path d="M949.469 1442C950.407 1433.73 946.275 1426.87 943.285 1419.75C931.436 1391.54 919.55 1363.35 907.621 1335.17C897.065 1310.24 886.417 1285.34 875.841 1260.42C869.71 1245.97 863.638 1231.49 857.557 1217.02C857.447 1216.76 857.543 1216.41 857.543 1216C868.183 1216 878.865 1216.41 889.502 1215.9C902.591 1215.27 914.734 1211.58 923.933 1201.5C931.362 1193.36 935.809 1183.59 935.899 1172.61C936.437 1107.05 936.869 1041.48 936.831 975.914C936.823 962.676 933.365 949.82 923.408 940.021C916.783 933.501 908.501 929.969 899.132 928.382C924.688 928 950.375 928 976.532 928.469C977 954.192 977 979.447 977 1005.08C1004.55 1005.08 1031.61 1005.08 1059 1005.08C1059 1150.97 1059 1296.49 1059 1442C1022.65 1442 986.292 1442 949.469 1442Z" fill="white"/>
<path d="M1059.47 1442C1059 1296.49 1059 1150.97 1059 1005.08C1031.61 1005.08 1004.55 1005.08 977 1005.08C977 979.447 977 954.192 977 928.469C1060.35 928 1143.71 928 1227.53 928.469C1228 954.192 1228 979.447 1228 1005.08C1200.12 1005.08 1172.73 1005.08 1145 1005.08C1145 1150.97 1145 1296.49 1145 1442C1116.65 1442 1088.29 1442 1059.47 1442Z" fill="black"/>
<path d="M1145.47 1442C1145 1296.49 1145 1150.97 1145 1005.08C1172.73 1005.08 1200.12 1005.08 1228 1005.08C1228 979.447 1228 954.192 1228 928.469C1241.02 928 1254.04 928 1267.53 928C1268 1099.02 1268 1270.04 1268 1441.53C1227.31 1442 1186.62 1442 1145.47 1442Z" fill="white"/>
<path d="M1612.53 928C1606.9 930.914 1600.47 933.3 1594.77 936.852C1583.5 943.875 1577.52 955.057 1577.24 967.746C1576.28 1010.47 1576.1 1053.22 1576.13 1095.96C1576.14 1110.16 1581.21 1123.01 1591.63 1133.01C1604.72 1145.57 1618.24 1157.69 1631.52 1170.06C1638.18 1176.26 1644.77 1182.54 1651.33 1188.85C1661.85 1198.97 1672.27 1209.2 1682.82 1219.3C1695.49 1231.42 1708.21 1243.49 1721.01 1255.48C1728.21 1262.24 1735.64 1268.76 1742.87 1275.48C1743.58 1276.14 1743.95 1277.49 1743.95 1278.52C1744.01 1308.16 1744 1337.8 1744 1367.72C1716.7 1367.72 1689.63 1367.72 1662.17 1367.72C1662.17 1337.04 1662.17 1306.3 1662.17 1275.28C1633.37 1275.28 1604.97 1275.28 1576.23 1275.28C1576.16 1276.47 1576.01 1277.74 1576.01 1279.02C1576 1316.84 1575.72 1354.67 1576.15 1392.49C1576.31 1406.48 1579.81 1419.85 1590.57 1430C1597.33 1436.39 1605.5 1440.03 1614.87 1441.62C1587.65 1442 1560.29 1442 1532.47 1442C1532 1270.98 1532 1099.96 1532 928.469C1558.69 928 1585.38 928 1612.53 928Z" fill="white"/>
<path d="M1874 928C1902.35 928 1930.71 928 1959.53 928.469C1960 1099.96 1960 1270.98 1960 1442C1931.65 1442 1903.29 1442 1874.47 1441.53C1874 1270.04 1874 1099.02 1874 928Z" fill="black"/>
<path d="M1873.53 928C1874 1099.02 1874 1270.04 1874 1441.53C1846.65 1442 1819.29 1442 1791.47 1442C1797.95 1439.01 1805.47 1436.89 1811.71 1432.82C1822.48 1425.79 1828.57 1414.79 1828.8 1402.14C1829.64 1357.24 1829.86 1312.32 1829.89 1267.41C1829.91 1252.32 1824.92 1238.83 1813.64 1228.12C1798.39 1213.63 1783.26 1199.01 1768.01 1184.52C1756.87 1173.93 1745.61 1163.45 1734.41 1152.92C1723.21 1142.39 1712.03 1131.84 1700.82 1121.32C1688.3 1109.56 1675.75 1097.82 1663.25 1086.04C1662.66 1085.48 1662.05 1084.56 1662.05 1083.8C1661.99 1056.68 1662 1029.56 1662 1002.22C1689.43 1002.22 1716.5 1002.22 1743.96 1002.22C1743.96 1030.09 1743.96 1057.83 1743.96 1085.78C1772.76 1085.78 1801.17 1085.78 1830 1085.78C1830 1084.03 1830 1082.41 1830 1080.79C1830 1046.13 1830.2 1011.46 1829.88 976.804C1829.78 965.943 1827.48 955.43 1820.82 946.214C1813.66 936.321 1804.14 930.705 1792.13 928.379C1819.02 928 1846.04 928 1873.53 928Z" fill="white"/>
<path d="M2529 1364.53C2484.86 1365 2440.71 1365 2396.28 1365C2396.28 1315.37 2396.28 1265.97 2396.28 1216.16C2433.63 1216.16 2471.04 1216.16 2508.72 1216.16C2508.72 1190.69 2508.72 1165.62 2508.72 1140.15C2471.35 1140.15 2433.94 1140.15 2396.27 1140.15C2396.27 1095.01 2396.27 1050.27 2396.27 1005C2440.19 1005 2484.13 1005 2528.53 1005C2529 1124.69 2529 1244.38 2529 1364.53Z" fill="white"/>
<path d="M604.532 928C610.032 930.188 615.395 931.834 620.028 934.672C630.889 941.326 635.739 952.098 635.834 964.168C636.23 1014.63 636.383 1065.1 635.781 1115.56C635.586 1131.95 626.405 1146.67 607.569 1150.88C601.57 1152.23 595.298 1152.86 589.144 1152.91C561.665 1153.12 534.178 1153.28 506.703 1152.85C496.918 1152.7 487.19 1151.19 478.595 1145.3C470.24 1139.57 466.282 1131.34 464.128 1122.08C463.067 1117.51 463.052 1112.64 463.045 1107.9C462.972 1060.6 462.893 1013.29 463.082 965.994C463.125 955.128 466.55 944.945 475.026 937.812C479.789 933.804 486.147 931.69 491.893 928.361C529.355 928 566.709 928 604.532 928ZM523.001 1018.5C523.001 1043.93 523.001 1069.35 523.001 1094.71C540.643 1094.71 557.713 1094.71 574.716 1094.71C574.716 1058.03 574.716 1021.62 574.716 985.286C557.359 985.286 540.288 985.286 523.001 985.286C523.001 996.214 523.001 1006.86 523.001 1018.5Z" fill="black"/>
<path d="M2309.53 928C2310 1099.02 2310 1270.04 2310 1441.53C2266.98 1442 2223.96 1442 2180.47 1442C2185.87 1440.67 2191.78 1439.51 2197.59 1437.97C2222.07 1431.48 2240.95 1417.69 2253.32 1395.29C2260.21 1382.81 2264.33 1369.59 2264.99 1355.34C2265.36 1347.43 2265.95 1339.51 2265.96 1331.6C2266.02 1228.99 2266.28 1126.39 2265.82 1023.78C2265.7 994.688 2255.62 968.97 2232.93 949.546C2220.73 939.102 2206.3 932.895 2190.48 930.013C2187.77 929.517 2185.02 929.189 2182.14 928.391C2224.35 928 2266.71 928 2309.53 928Z" fill="white"/>
<path d="M1960.47 1442C1960 1270.98 1960 1099.96 1960 928.469C1974.35 928 1988.71 928 2003.53 928C2004 1099.02 2004 1270.04 2004 1441.53C1989.65 1442 1975.29 1442 1960.47 1442Z" fill="white"/>
<path d="M1354.47 1442C1354 1366.9 1354 1291.8 1354 1216.35C1384.59 1216.35 1415.1 1216.35 1446 1216.35C1446 1291.28 1446 1366.17 1446 1441.53C1415.65 1442 1385.29 1442 1354.47 1442Z" fill="white"/>
<path d="M1445.53 928C1446 996.766 1446 1065.53 1446 1134.65C1415.41 1134.65 1384.9 1134.65 1354 1134.65C1354 1066.05 1354 997.494 1354 928.469C1384.35 928 1414.71 928 1445.53 928Z" fill="white"/>
<path d="M237.469 1442C237 1349.51 237 1257.01 237 1164.51C237.284 1164.39 237.567 1164.27 237.851 1164.15C238.902 1166.64 240.03 1169.1 240.992 1171.62C250.808 1197.36 260.616 1223.09 270.387 1248.85C278.284 1269.66 286.125 1290.5 293.993 1311.32C302.71 1334.4 311.413 1357.47 320.152 1380.54C327.075 1398.81 334.051 1417.06 340.984 1435.32C341.72 1437.26 342.331 1439.25 343 1441.61C307.979 1442 272.958 1442 237.469 1442Z" fill="white"/>
<path d="M333.53 928C333.999 1017.57 333.999 1107.14 333.999 1196.72C333.525 1196.92 333.052 1197.13 332.578 1197.33C331.061 1194.27 329.301 1191.29 328.064 1188.12C317.786 1161.72 307.553 1135.31 297.408 1108.87C287.204 1082.27 277.206 1055.59 266.952 1029.02C257.33 1004.08 247.473 979.228 237.759 954.323C234.447 945.833 231.253 937.298 228.002 928.392C263.02 928 298.041 928 333.53 928Z" fill="white"/>
<path d="M766.469 1442C766 1365.07 766 1288.15 766 1211.22C766.419 1211.08 766.838 1210.94 767.257 1210.81C768.823 1214.1 770.568 1217.32 771.927 1220.7C781.676 1244.92 791.334 1269.17 801.047 1293.4C809.688 1314.96 818.309 1336.53 827.039 1358.05C835.291 1378.39 843.683 1398.67 851.994 1418.99C855.022 1426.39 857.997 1433.82 860.998 1441.62C829.646 1442 798.292 1442 766.469 1442Z" fill="white"/>
<path d="M851 1051C851 1084.47 851 1117.45 851 1150.71C822.715 1150.71 794.645 1150.71 766.287 1150.71C766.287 1101.38 766.287 1051.98 766.287 1002.29C794.285 1002.29 822.355 1002.29 851 1002.29C851 1018.31 851 1034.4 851 1051Z" fill="white"/>
<path d="M2090 1341C2090 1227.88 2090 1115.27 2090 1002.24C2091.54 1002.16 2092.97 1002.01 2094.39 1002.01C2110.05 1001.99 2125.72 1001.74 2141.37 1002.1C2150.64 1002.31 2159.4 1004.39 2167.14 1010.43C2174.94 1016.52 2178.8 1024.66 2178.83 1033.76C2179.1 1134.23 2179.17 1234.69 2178.81 1335.16C2178.76 1350.03 2169.72 1362.25 2153.42 1365.89C2147.42 1367.22 2141.15 1367.79 2134.99 1367.91C2120.5 1368.19 2106 1367.99 2091.5 1367.98C2091.19 1367.98 2090.88 1367.85 2090 1367.67C2090 1359.03 2090 1350.26 2090 1341Z" fill="white"/>
<path d="M523 1018C523 1006.86 523 996.214 523 985.286C540.288 985.286 557.358 985.286 574.715 985.286C574.715 1021.62 574.715 1058.03 574.715 1094.71C557.712 1094.71 540.642 1094.71 523 1094.71C523 1069.35 523 1043.93 523 1018Z" fill="white"/>
</g>
</g>
<defs>
<clipPath id="clip0_6289_4878">
<rect width="2376" height="514" fill="white" transform="translate(152 927)"/>
</clipPath>
</defs>
</svg>
