<svg width="400" height="400" viewBox="0 0 400 400" fill="none" xmlns="http://www.w3.org/2000/svg">
<rect width="400" height="400" fill="white"/>
<g clip-path="url(#clip0_6289_4949)">
<path fill-rule="evenodd" clip-rule="evenodd" d="M61.4303 220.032C65.2735 224.081 71.1358 227.123 77.2779 227.123C83.0517 227.123 87.0897 223.712 87.0897 219.018C87.0897 210.714 74.593 209.704 65.5604 204.637C60.2755 201.688 56.0462 197.263 56.0462 189.988C56.0462 178.465 67.0977 171.824 78.2414 171.824C85.0671 171.824 91.4112 173.395 97.7517 177.908L91.0215 187.126C88.333 184.726 83.8168 182.875 79.3997 182.875C74.5009 182.875 69.0211 184.907 69.0211 189.881C69.0211 200.294 100.061 197.078 100.061 218.823C100.061 230.257 89.3921 238.181 77.285 238.181C68.2525 238.181 59.893 234.586 52.9751 228.502L61.4303 220.032ZM132.245 172.746C142.907 172.746 149.921 174.958 155.404 178.83C163.664 184.726 168.758 194.309 168.758 205.003C168.758 215.692 163.664 225.283 155.404 231.175C149.924 235.047 142.911 237.263 132.245 237.263H111.099V172.75L132.245 172.746ZM150.884 190.994C147.129 186.481 141.66 183.808 133.683 183.808H124.077V226.201H133.683C141.66 226.201 147.133 223.531 150.884 219.018C153.959 215.323 155.787 210.349 155.787 205.006C155.787 199.66 153.959 194.682 150.884 190.994ZM187.967 231.547C182.395 226.754 179.324 219.936 179.324 210.076V172.742H192.289V210.998C192.289 216.89 193.932 220.489 196.716 222.974C199.596 225.648 203.631 227.123 208.15 227.123C212.667 227.123 216.701 225.648 219.592 222.974C222.372 220.493 224.005 216.89 224.005 210.991V172.75H236.977V210.083C236.977 219.94 233.906 226.757 228.334 231.551C223.141 235.976 215.741 238.188 208.154 238.188C200.563 238.188 193.164 235.976 187.974 231.551M303.265 199.518C304.125 203.588 307.459 209.268 318.184 210.792C324.631 211.696 339.622 209.668 346.614 208.048C341.974 200.273 333.543 191.611 323.108 189.232C312.613 186.846 305.681 189.906 303.254 196.203M286.524 209.98C286.524 209.98 285.756 209.335 283.124 209.307C278.484 209.254 275.246 211.292 272.993 216.125C270.818 220.794 272.32 228.133 275.26 232.373C276.925 234.763 279.83 237.763 283.301 237.763C286.772 237.763 287.754 236.025 288.969 236.025C290.194 236.025 291.321 237.72 294.93 237.72C298.543 237.72 301.394 234.504 302.592 232.685C305.372 228.491 306.771 220.879 304.752 216.245C303.003 212.221 300.017 209.42 296.173 209.378C293.418 209.342 290.764 210.342 290.764 210.342" fill="black"/>
<path fill-rule="evenodd" clip-rule="evenodd" d="M304.848 199.557V196.242C298.66 194.941 287.845 195.061 277.715 197.454C271.835 198.844 260.029 202.195 248.623 210.012L251.255 213.547C259.526 207.006 267.691 203.666 274.159 202.117C282.748 200.06 287.3 205.581 286.804 211.193L290.998 211.186C290.318 204.255 287.527 200.543 282.667 199.511C287.874 198.383 299.301 197.657 304.859 199.564M288.242 176.012C298.153 166.07 317.748 162.383 317.748 162.383C308.553 169.417 308.362 178.064 299.202 185.18C293.403 189.683 284.962 191.413 280.488 191.686C280.751 188.967 280.991 183.294 288.246 176.015" fill="black"/>
</g>
<defs>
<clipPath id="clip0_6289_4949">
<rect width="294" height="78" fill="white" transform="translate(53 161)"/>
</clipPath>
</defs>
</svg>
